<svg xmlns="http://www.w3.org/2000/svg" width="1029.715" height="209.823" viewBox="0 0 1029.715 209.823">
  <g id="Grupo_113948" data-name="Grupo 113948" transform="translate(-286 -1588)">
    <path id="Trazado_165335" data-name="Trazado 165335" d="M102.912,0A102.912,102.912,0,1,1,0,102.912,102.912,102.912,0,0,1,102.912,0Z" transform="translate(451.976 1590)" fill="none" stroke="#75b52f" stroke-width="4" opacity="0.6"/>
    <path id="Trazado_165334" data-name="Trazado 165334" d="M102.912,0A102.912,102.912,0,1,1,0,102.912,102.912,102.912,0,0,1,102.912,0Z" transform="translate(615.952 1590)" fill="none" stroke="#dbe636" stroke-width="4" opacity="0.6"/>
    <path id="Trazado_165333" data-name="Trazado 165333" d="M102.912,0A102.912,102.912,0,1,1,0,102.912,102.912,102.912,0,0,1,102.912,0Z" transform="translate(779.939 1590)" fill="none" stroke="#dbe636" stroke-width="4" opacity="0.8"/>
    <path id="Trazado_165332" data-name="Trazado 165332" d="M102.912,0A102.912,102.912,0,1,1,0,102.912,102.912,102.912,0,0,1,102.912,0Z" transform="translate(943.915 1590)" fill="none" stroke="#3d46c1" stroke-width="4" opacity="0.8"/>
    <path id="Trazado_165331" data-name="Trazado 165331" d="M102.912,0A102.912,102.912,0,1,1,0,102.912,102.912,102.912,0,0,1,102.912,0Z" transform="translate(1107.892 1590)" fill="none" stroke="#3d46c1" stroke-width="4" opacity="0.6"/>
    <path id="Trazado_165337" data-name="Trazado 165337" d="M9.17-10.664v6.98A4.012,4.012,0,0,1,8.665-1.63,3.274,3.274,0,0,1,7.214-.308,5.109,5.109,0,0,1,4.98.146,4.414,4.414,0,0,1,1.912-.864,3.6,3.6,0,0,1,.769-3.633v-7.031H3.354v7.083Q3.4-1.831,4.98-1.831a1.574,1.574,0,0,0,1.208-.439A2.054,2.054,0,0,0,6.6-3.7v-6.965ZM13.264,0H10.789V-11.25h2.476Zm4.395-9.9v1.97h1.3v1.714h-1.3v3.625a.926.926,0,0,0,.161.623.864.864,0,0,0,.637.176,3.621,3.621,0,0,0,.615-.044V-.066a4.555,4.555,0,0,1-1.392.212,2.586,2.586,0,0,1-1.882-.6,2.462,2.462,0,0,1-.608-1.824V-6.211H14.18V-7.925H15.19V-9.9Zm7.068,4.2-.813-.059a1.46,1.46,0,0,0-1.494.732V0H19.951V-7.925h2.314l.081,1.018a1.911,1.911,0,0,1,1.736-1.165,2.407,2.407,0,0,1,.688.088ZM29.861,0a2.787,2.787,0,0,1-.234-.71,2.3,2.3,0,0,1-1.9.857,2.812,2.812,0,0,1-1.9-.677,2.156,2.156,0,0,1-.784-1.7,2.216,2.216,0,0,1,.952-1.948,4.851,4.851,0,0,1,2.769-.659h.762v-.42q0-1.1-.945-1.1a.772.772,0,0,0-.879.868H25.225A2.213,2.213,0,0,1,26.2-7.354,4.109,4.109,0,0,1,28.7-8.071a3.6,3.6,0,0,1,2.4.74,2.572,2.572,0,0,1,.9,2.029v3.508a3.593,3.593,0,0,0,.337,1.67V0ZM28.315-1.611a1.377,1.377,0,0,0,.765-.2,1.239,1.239,0,0,0,.436-.447V-3.523H28.8q-1.289,0-1.289,1.157a.707.707,0,0,0,.227.546A.822.822,0,0,0,28.315-1.611Zm12.927-.615a.57.57,0,0,0-.33-.505,5.013,5.013,0,0,0-1.252-.4,5.711,5.711,0,0,1-1.523-.538,2.552,2.552,0,0,1-.916-.809,1.933,1.933,0,0,1-.315-1.091,2.19,2.19,0,0,1,.9-1.8,3.711,3.711,0,0,1,2.358-.707,4.112,4.112,0,0,1,2.52.71,2.222,2.222,0,0,1,.952,1.868H41.162q0-.952-1-.952a1,1,0,0,0-.652.216.669.669,0,0,0-.264.538.614.614,0,0,0,.322.535,3.045,3.045,0,0,0,1.029.337,8.893,8.893,0,0,1,1.241.315,2.255,2.255,0,0,1,1.787,2.2A2.075,2.075,0,0,1,42.66-.535a4.224,4.224,0,0,1-2.494.681A4.31,4.31,0,0,1,38.35-.22a3.037,3.037,0,0,1-1.245-1,2.256,2.256,0,0,1-.447-1.326h2.307a.954.954,0,0,0,.366.8,1.506,1.506,0,0,0,.9.253,1.185,1.185,0,0,0,.758-.205A.656.656,0,0,0,41.243-2.227ZM48.611.146A4.074,4.074,0,0,1,45.659-.941a3.756,3.756,0,0,1-1.128-2.831v-.205a4.867,4.867,0,0,1,.45-2.146A3.3,3.3,0,0,1,46.3-7.562a3.969,3.969,0,0,1,2.051-.509,3.43,3.43,0,0,1,2.637,1.036,4.073,4.073,0,0,1,.967,2.889v.959H47.043a1.779,1.779,0,0,0,.579,1.047,1.722,1.722,0,0,0,1.157.381,2.218,2.218,0,0,0,1.831-.82l1.128,1.333A3.153,3.153,0,0,1,50.431-.231,4.418,4.418,0,0,1,48.611.146Zm-.278-6.313q-1.084,0-1.289,1.436h2.49v-.19a1.223,1.223,0,0,0-.3-.919A1.2,1.2,0,0,0,48.333-6.167Zm7.961,4.409A1.1,1.1,0,0,0,57.1-2.04a1.034,1.034,0,0,0,.278-.787h2.314a2.74,2.74,0,0,1-.934,2.139,3.474,3.474,0,0,1-2.406.835A3.517,3.517,0,0,1,53.628-.937a4.271,4.271,0,0,1-1-3v-.1a4.827,4.827,0,0,1,.443-2.12,3.226,3.226,0,0,1,1.278-1.414,3.811,3.811,0,0,1,1.978-.494,3.43,3.43,0,0,1,2.454.857,3.039,3.039,0,0,1,.908,2.322H57.378a1.355,1.355,0,0,0-.3-.945,1.037,1.037,0,0,0-.806-.33q-.959,0-1.121,1.223A8.631,8.631,0,0,0,55.1-3.875a3.39,3.39,0,0,0,.286,1.655A.989.989,0,0,0,56.294-1.758ZM65.53-5.691l-.813-.059a1.46,1.46,0,0,0-1.494.732V0H60.754V-7.925h2.314l.081,1.018a1.911,1.911,0,0,1,1.736-1.165,2.407,2.407,0,0,1,.688.088ZM70.254.146A4.074,4.074,0,0,1,67.3-.941a3.756,3.756,0,0,1-1.128-2.831v-.205a4.867,4.867,0,0,1,.45-2.146,3.3,3.3,0,0,1,1.315-1.439,3.969,3.969,0,0,1,2.051-.509,3.43,3.43,0,0,1,2.637,1.036,4.073,4.073,0,0,1,.967,2.889v.959H68.687a1.779,1.779,0,0,0,.579,1.047,1.722,1.722,0,0,0,1.157.381,2.218,2.218,0,0,0,1.831-.82l1.128,1.333A3.153,3.153,0,0,1,72.074-.231,4.418,4.418,0,0,1,70.254.146Zm-.278-6.313q-1.084,0-1.289,1.436h2.49v-.19a1.223,1.223,0,0,0-.3-.919A1.2,1.2,0,0,0,69.976-6.167ZM77.461-9.9v1.97h1.3v1.714h-1.3v3.625a.926.926,0,0,0,.161.623.864.864,0,0,0,.637.176,3.621,3.621,0,0,0,.615-.044V-.066a4.555,4.555,0,0,1-1.392.212,2.586,2.586,0,0,1-1.882-.6,2.462,2.462,0,0,1-.608-1.824V-6.211H73.982V-7.925h1.011V-9.9ZM79.2-4.036a4.677,4.677,0,0,1,.461-2.113,3.3,3.3,0,0,1,1.326-1.425,3.993,3.993,0,0,1,2.029-.5,3.644,3.644,0,0,1,2.805,1.1,4.23,4.23,0,0,1,1.025,3v.088A4.1,4.1,0,0,1,85.822-.941,3.654,3.654,0,0,1,83.035.146,3.7,3.7,0,0,1,80.317-.868a3.968,3.968,0,0,1-1.106-2.75Zm2.468.154a2.949,2.949,0,0,0,.344,1.611,1.147,1.147,0,0,0,1.018.513q1.318,0,1.348-2.029v-.249q0-2.131-1.362-2.131-1.238,0-1.34,1.838ZM92.087-2.227a.57.57,0,0,0-.33-.505,5.013,5.013,0,0,0-1.252-.4,5.711,5.711,0,0,1-1.523-.538,2.552,2.552,0,0,1-.916-.809,1.933,1.933,0,0,1-.315-1.091,2.19,2.19,0,0,1,.9-1.8,3.711,3.711,0,0,1,2.358-.707,4.112,4.112,0,0,1,2.52.71,2.222,2.222,0,0,1,.952,1.868H92.007q0-.952-1-.952a1,1,0,0,0-.652.216.669.669,0,0,0-.264.538.614.614,0,0,0,.322.535,3.045,3.045,0,0,0,1.029.337,8.893,8.893,0,0,1,1.241.315,2.255,2.255,0,0,1,1.787,2.2A2.075,2.075,0,0,1,93.5-.535a4.224,4.224,0,0,1-2.494.681A4.31,4.31,0,0,1,89.194-.22a3.037,3.037,0,0,1-1.245-1A2.256,2.256,0,0,1,87.5-2.542H89.81a.954.954,0,0,0,.366.8,1.506,1.506,0,0,0,.9.253,1.185,1.185,0,0,0,.758-.205A.656.656,0,0,0,92.087-2.227Z" transform="translate(1158.183 1697.488)" fill="#14263e"/>
    <path id="Trazado_165338" data-name="Trazado 165338" d="M9.434-3.611a3.9,3.9,0,0,1-.6,1.967A3.625,3.625,0,0,1,7.291-.322,5.248,5.248,0,0,1,5.024.146a4.188,4.188,0,0,1-3.311-1.37A5.655,5.655,0,0,1,.505-5.09v-.527a6.455,6.455,0,0,1,.546-2.743,4.134,4.134,0,0,1,1.571-1.816A4.383,4.383,0,0,1,5-10.818,4.6,4.6,0,0,1,8.115-9.8,4.037,4.037,0,0,1,9.456-6.98H6.892a1.91,1.91,0,0,0-.491-1.4A2.018,2.018,0,0,0,5-8.8a1.536,1.536,0,0,0-1.406.718A4.613,4.613,0,0,0,3.12-5.793v.754A5.1,5.1,0,0,0,3.549-2.6a1.568,1.568,0,0,0,1.476.732,1.974,1.974,0,0,0,1.355-.417,1.772,1.772,0,0,0,.5-1.326Zm.791-.425a4.677,4.677,0,0,1,.461-2.113,3.3,3.3,0,0,1,1.326-1.425,3.993,3.993,0,0,1,2.029-.5,3.644,3.644,0,0,1,2.805,1.1,4.23,4.23,0,0,1,1.025,3v.088A4.1,4.1,0,0,1,16.842-.941,3.654,3.654,0,0,1,14.055.146,3.7,3.7,0,0,1,11.338-.868a3.968,3.968,0,0,1-1.106-2.75Zm2.468.154a2.949,2.949,0,0,0,.344,1.611,1.147,1.147,0,0,0,1.018.513q1.318,0,1.348-2.029v-.249q0-2.131-1.362-2.131-1.238,0-1.34,1.838Zm8.533-4.043.081.93a2.687,2.687,0,0,1,2.263-1.077,2.261,2.261,0,0,1,1.849.74A3.522,3.522,0,0,1,26.052-5.1V0H23.577V-5a1.337,1.337,0,0,0-.242-.883,1.118,1.118,0,0,0-.879-.282,1.177,1.177,0,0,0-1.077.571V0H18.911V-7.925ZM27.993,0V-6.211h-1.15V-7.925h1.15v-.264a3.026,3.026,0,0,1,1.04-2.424,4.156,4.156,0,0,1,2.7-.791,9.591,9.591,0,0,1,2.578.425l-.337,1.948-.41-.11a6.527,6.527,0,0,0-1.685-.212q-1.414,0-1.414,1.289v.139h1.553v1.714H30.469V0Zm7.456,0H32.966V-7.925h2.483Zm1.194-4.021a4.841,4.841,0,0,1,.813-2.966,2.676,2.676,0,0,1,2.271-1.084,2.276,2.276,0,0,1,1.787.835V-11.25h2.476V0H41.77l-.125-.85a2.337,2.337,0,0,1-1.934,1A2.671,2.671,0,0,1,37.471-.937,4.994,4.994,0,0,1,36.643-4.021Zm2.468.154q0,2.109,1.23,2.109a1.215,1.215,0,0,0,1.172-.688V-5.464a1.182,1.182,0,0,0-1.157-.7q-1.143,0-1.238,1.846ZM49.226.146A4.074,4.074,0,0,1,46.274-.941a3.756,3.756,0,0,1-1.128-2.831v-.205a4.867,4.867,0,0,1,.45-2.146,3.3,3.3,0,0,1,1.315-1.439,3.969,3.969,0,0,1,2.051-.509A3.43,3.43,0,0,1,51.6-7.035a4.073,4.073,0,0,1,.967,2.889v.959H47.659a1.779,1.779,0,0,0,.579,1.047,1.722,1.722,0,0,0,1.157.381,2.218,2.218,0,0,0,1.831-.82l1.128,1.333A3.153,3.153,0,0,1,51.046-.231,4.418,4.418,0,0,1,49.226.146Zm-.278-6.313q-1.084,0-1.289,1.436h2.49v-.19a1.223,1.223,0,0,0-.3-.919A1.2,1.2,0,0,0,48.948-6.167Zm6.877-1.758.081.93a2.687,2.687,0,0,1,2.263-1.077,2.261,2.261,0,0,1,1.849.74A3.522,3.522,0,0,1,60.652-5.1V0H58.176V-5a1.337,1.337,0,0,0-.242-.883,1.118,1.118,0,0,0-.879-.282,1.177,1.177,0,0,0-1.077.571V0H53.511V-7.925Zm9.543,6.167a1.1,1.1,0,0,0,.806-.282,1.034,1.034,0,0,0,.278-.787h2.314a2.74,2.74,0,0,1-.934,2.139,3.474,3.474,0,0,1-2.406.835A3.517,3.517,0,0,1,62.7-.937a4.271,4.271,0,0,1-1-3v-.1a4.827,4.827,0,0,1,.443-2.12,3.226,3.226,0,0,1,1.278-1.414,3.811,3.811,0,0,1,1.978-.494,3.43,3.43,0,0,1,2.454.857,3.039,3.039,0,0,1,.908,2.322H66.453a1.355,1.355,0,0,0-.3-.945,1.037,1.037,0,0,0-.806-.33q-.959,0-1.121,1.223a8.631,8.631,0,0,0-.051,1.069,3.39,3.39,0,0,0,.286,1.655A.989.989,0,0,0,65.369-1.758ZM72.415,0H69.939V-7.925h2.476ZM69.792-9.968a1.1,1.1,0,0,1,.381-.864,1.437,1.437,0,0,1,.989-.337,1.437,1.437,0,0,1,.989.337,1.1,1.1,0,0,1,.381.864,1.1,1.1,0,0,1-.381.864,1.437,1.437,0,0,1-.989.337,1.437,1.437,0,0,1-.989-.337A1.1,1.1,0,0,1,69.792-9.968ZM78.4,0a2.787,2.787,0,0,1-.234-.71,2.3,2.3,0,0,1-1.9.857,2.812,2.812,0,0,1-1.9-.677,2.156,2.156,0,0,1-.784-1.7,2.216,2.216,0,0,1,.952-1.948,4.851,4.851,0,0,1,2.769-.659h.762v-.42q0-1.1-.945-1.1a.772.772,0,0,0-.879.868H73.762a2.213,2.213,0,0,1,.978-1.865,4.109,4.109,0,0,1,2.494-.717,3.6,3.6,0,0,1,2.4.74,2.572,2.572,0,0,1,.9,2.029v3.508a3.593,3.593,0,0,0,.337,1.67V0ZM76.853-1.611a1.377,1.377,0,0,0,.765-.2,1.239,1.239,0,0,0,.436-.447V-3.523h-.718q-1.289,0-1.289,1.157a.707.707,0,0,0,.227.546A.822.822,0,0,0,76.853-1.611ZM84.5,0H82.024V-11.25H84.5Zm5.354.146A4.074,4.074,0,0,1,86.9-.941a3.756,3.756,0,0,1-1.128-2.831v-.205a4.867,4.867,0,0,1,.45-2.146,3.3,3.3,0,0,1,1.315-1.439,3.969,3.969,0,0,1,2.051-.509,3.43,3.43,0,0,1,2.637,1.036,4.073,4.073,0,0,1,.967,2.889v.959H88.286a1.779,1.779,0,0,0,.579,1.047,1.722,1.722,0,0,0,1.157.381,2.218,2.218,0,0,0,1.831-.82l1.128,1.333A3.153,3.153,0,0,1,91.674-.231,4.418,4.418,0,0,1,89.854.146Zm-.278-6.313q-1.084,0-1.289,1.436h2.49v-.19a1.223,1.223,0,0,0-.3-.919A1.2,1.2,0,0,0,89.575-6.167Zm8.76,3.94a.57.57,0,0,0-.33-.505,5.013,5.013,0,0,0-1.252-.4,5.711,5.711,0,0,1-1.523-.538,2.552,2.552,0,0,1-.916-.809A1.933,1.933,0,0,1,94-5.566a2.19,2.19,0,0,1,.9-1.8,3.711,3.711,0,0,1,2.358-.707,4.112,4.112,0,0,1,2.52.71,2.222,2.222,0,0,1,.952,1.868H98.254q0-.952-1-.952a1,1,0,0,0-.652.216.669.669,0,0,0-.264.538.614.614,0,0,0,.322.535,3.045,3.045,0,0,0,1.029.337,8.893,8.893,0,0,1,1.241.315,2.255,2.255,0,0,1,1.787,2.2,2.075,2.075,0,0,1-.963,1.765,4.224,4.224,0,0,1-2.494.681A4.31,4.31,0,0,1,95.442-.22a3.037,3.037,0,0,1-1.245-1,2.256,2.256,0,0,1-.447-1.326h2.307a.954.954,0,0,0,.366.8,1.506,1.506,0,0,0,.9.253,1.185,1.185,0,0,0,.758-.205A.656.656,0,0,0,98.335-2.227Z" transform="translate(827.168 1697.571)" fill="#14263e"/>
    <path id="Trazado_165339" data-name="Trazado 165339" d="M6.306-2.834a1.056,1.056,0,0,0-.4-.879,4.961,4.961,0,0,0-1.4-.652,13.456,13.456,0,0,1-1.641-.652,3.107,3.107,0,0,1-2.073-2.8,2.509,2.509,0,0,1,.516-1.564,3.34,3.34,0,0,1,1.461-1.055,5.686,5.686,0,0,1,2.124-.377,4.974,4.974,0,0,1,2.062.41A3.264,3.264,0,0,1,8.372-9.232,3.051,3.051,0,0,1,8.877-7.5H6.313a1.289,1.289,0,0,0-.4-1.011,1.556,1.556,0,0,0-1.08-.359,1.755,1.755,0,0,0-1.088.3.932.932,0,0,0-.4.773.939.939,0,0,0,.439.743,5.542,5.542,0,0,0,1.545.688A9.467,9.467,0,0,1,7.148-5.6,3.052,3.052,0,0,1,8.877-2.849a2.6,2.6,0,0,1-1.055,2.2,4.691,4.691,0,0,1-2.893.8A5.74,5.74,0,0,1,2.582-.319,3.539,3.539,0,0,1,1-1.593,3.321,3.321,0,0,1,.469-3.457H3.047A1.635,1.635,0,0,0,3.49-2.194a2.094,2.094,0,0,0,1.439.406,1.655,1.655,0,0,0,1.007-.275A.907.907,0,0,0,6.306-2.834ZM13.916.146A4.074,4.074,0,0,1,10.964-.941,3.756,3.756,0,0,1,9.836-3.772v-.205a4.867,4.867,0,0,1,.45-2.146A3.3,3.3,0,0,1,11.6-7.562a3.969,3.969,0,0,1,2.051-.509,3.43,3.43,0,0,1,2.637,1.036,4.073,4.073,0,0,1,.967,2.889v.959H12.349a1.779,1.779,0,0,0,.579,1.047,1.722,1.722,0,0,0,1.157.381,2.218,2.218,0,0,0,1.831-.82l1.128,1.333A3.153,3.153,0,0,1,15.736-.231,4.418,4.418,0,0,1,13.916.146Zm-.278-6.313q-1.084,0-1.289,1.436h2.49v-.19a1.223,1.223,0,0,0-.3-.919A1.2,1.2,0,0,0,13.638-6.167ZM21.6-1.758A1.1,1.1,0,0,0,22.4-2.04a1.034,1.034,0,0,0,.278-.787H25a2.74,2.74,0,0,1-.934,2.139,3.474,3.474,0,0,1-2.406.835A3.517,3.517,0,0,1,18.933-.937a4.271,4.271,0,0,1-1-3v-.1a4.827,4.827,0,0,1,.443-2.12,3.226,3.226,0,0,1,1.278-1.414,3.811,3.811,0,0,1,1.978-.494,3.43,3.43,0,0,1,2.454.857A3.039,3.039,0,0,1,25-4.893H22.683a1.355,1.355,0,0,0-.3-.945,1.037,1.037,0,0,0-.806-.33q-.959,0-1.121,1.223a8.631,8.631,0,0,0-.051,1.069,3.39,3.39,0,0,0,.286,1.655A.989.989,0,0,0,21.6-1.758Zm9.236-3.933-.813-.059a1.46,1.46,0,0,0-1.494.732V0H26.06V-7.925h2.314l.081,1.018A1.911,1.911,0,0,1,30.19-8.071a2.407,2.407,0,0,1,.688.088ZM35.559.146A4.074,4.074,0,0,1,32.607-.941a3.756,3.756,0,0,1-1.128-2.831v-.205a4.867,4.867,0,0,1,.45-2.146,3.3,3.3,0,0,1,1.315-1.439A3.969,3.969,0,0,1,35.3-8.071a3.43,3.43,0,0,1,2.637,1.036A4.073,4.073,0,0,1,38.9-4.146v.959H33.992a1.779,1.779,0,0,0,.579,1.047,1.722,1.722,0,0,0,1.157.381,2.218,2.218,0,0,0,1.831-.82l1.128,1.333A3.153,3.153,0,0,1,37.379-.231,4.418,4.418,0,0,1,35.559.146Zm-.278-6.313q-1.084,0-1.289,1.436h2.49v-.19a1.223,1.223,0,0,0-.3-.919A1.2,1.2,0,0,0,35.281-6.167ZM42.766-9.9v1.97h1.3v1.714h-1.3v3.625a.926.926,0,0,0,.161.623.864.864,0,0,0,.637.176,3.621,3.621,0,0,0,.615-.044V-.066a4.555,4.555,0,0,1-1.392.212,2.586,2.586,0,0,1-1.882-.6A2.462,2.462,0,0,1,40.3-2.278V-6.211H39.287V-7.925H40.3V-9.9Zm1.743,5.859a4.677,4.677,0,0,1,.461-2.113A3.3,3.3,0,0,1,46.3-7.573a3.993,3.993,0,0,1,2.029-.5,3.644,3.644,0,0,1,2.805,1.1,4.23,4.23,0,0,1,1.025,3v.088A4.1,4.1,0,0,1,51.127-.941,3.654,3.654,0,0,1,48.34.146,3.7,3.7,0,0,1,45.623-.868a3.968,3.968,0,0,1-1.106-2.75Zm2.468.154a2.949,2.949,0,0,0,.344,1.611,1.147,1.147,0,0,0,1.018.513q1.318,0,1.348-2.029v-.249q0-2.131-1.362-2.131-1.238,0-1.34,1.838ZM57.393-2.227a.57.57,0,0,0-.33-.505,5.013,5.013,0,0,0-1.252-.4,5.711,5.711,0,0,1-1.523-.538,2.552,2.552,0,0,1-.916-.809,1.933,1.933,0,0,1-.315-1.091,2.19,2.19,0,0,1,.9-1.8,3.711,3.711,0,0,1,2.358-.707,4.112,4.112,0,0,1,2.52.71,2.222,2.222,0,0,1,.952,1.868H57.312q0-.952-1-.952a1,1,0,0,0-.652.216.669.669,0,0,0-.264.538.614.614,0,0,0,.322.535,3.045,3.045,0,0,0,1.029.337,8.893,8.893,0,0,1,1.241.315,2.255,2.255,0,0,1,1.787,2.2A2.075,2.075,0,0,1,58.81-.535a4.224,4.224,0,0,1-2.494.681A4.31,4.31,0,0,1,54.5-.22a3.037,3.037,0,0,1-1.245-1,2.256,2.256,0,0,1-.447-1.326h2.307a.954.954,0,0,0,.366.8,1.506,1.506,0,0,0,.9.253,1.185,1.185,0,0,0,.758-.205A.656.656,0,0,0,57.393-2.227Z" transform="translate(1013.568 1697.252)" fill="#14263e"/>
    <path id="Trazado_165340" data-name="Trazado 165340" d="M9.434-3.611a3.9,3.9,0,0,1-.6,1.967A3.625,3.625,0,0,1,7.291-.322,5.248,5.248,0,0,1,5.024.146a4.188,4.188,0,0,1-3.311-1.37A5.655,5.655,0,0,1,.505-5.09v-.527a6.455,6.455,0,0,1,.546-2.743,4.134,4.134,0,0,1,1.571-1.816A4.383,4.383,0,0,1,5-10.818,4.6,4.6,0,0,1,8.115-9.8,4.037,4.037,0,0,1,9.456-6.98H6.892a1.91,1.91,0,0,0-.491-1.4A2.018,2.018,0,0,0,5-8.8a1.536,1.536,0,0,0-1.406.718A4.613,4.613,0,0,0,3.12-5.793v.754A5.1,5.1,0,0,0,3.549-2.6a1.568,1.568,0,0,0,1.476.732,1.974,1.974,0,0,0,1.355-.417,1.772,1.772,0,0,0,.5-1.326ZM14.37.146A4.074,4.074,0,0,1,11.418-.941a3.756,3.756,0,0,1-1.128-2.831v-.205a4.867,4.867,0,0,1,.45-2.146,3.3,3.3,0,0,1,1.315-1.439,3.969,3.969,0,0,1,2.051-.509,3.43,3.43,0,0,1,2.637,1.036,4.073,4.073,0,0,1,.967,2.889v.959H12.8a1.779,1.779,0,0,0,.579,1.047,1.722,1.722,0,0,0,1.157.381,2.218,2.218,0,0,0,1.831-.82L17.5-1.245A3.153,3.153,0,0,1,16.19-.231,4.418,4.418,0,0,1,14.37.146Zm-.278-6.313q-1.084,0-1.289,1.436h2.49v-.19a1.223,1.223,0,0,0-.3-.919A1.2,1.2,0,0,0,14.092-6.167Zm9.4.476-.813-.059a1.46,1.46,0,0,0-1.494.732V0H18.721V-7.925h2.314l.081,1.018a1.911,1.911,0,0,1,1.736-1.165,2.407,2.407,0,0,1,.688.088Zm5.684,0-.813-.059a1.46,1.46,0,0,0-1.494.732V0H24.4V-7.925h2.314L26.8-6.907a1.911,1.911,0,0,1,1.736-1.165,2.407,2.407,0,0,1,.688.088ZM34.314,0a2.787,2.787,0,0,1-.234-.71,2.3,2.3,0,0,1-1.9.857,2.812,2.812,0,0,1-1.9-.677,2.156,2.156,0,0,1-.784-1.7,2.216,2.216,0,0,1,.952-1.948,4.851,4.851,0,0,1,2.769-.659h.762v-.42q0-1.1-.945-1.1a.772.772,0,0,0-.879.868H29.678a2.213,2.213,0,0,1,.978-1.865,4.109,4.109,0,0,1,2.494-.717,3.6,3.6,0,0,1,2.4.74,2.572,2.572,0,0,1,.9,2.029v3.508a3.593,3.593,0,0,0,.337,1.67V0ZM32.769-1.611a1.377,1.377,0,0,0,.765-.2,1.239,1.239,0,0,0,.436-.447V-3.523h-.718q-1.289,0-1.289,1.157a.707.707,0,0,0,.227.546A.822.822,0,0,0,32.769-1.611ZM37.5-4.021a4.841,4.841,0,0,1,.813-2.966,2.676,2.676,0,0,1,2.271-1.084,2.276,2.276,0,0,1,1.787.835V-11.25h2.476V0H42.627L42.5-.85a2.337,2.337,0,0,1-1.934,1A2.671,2.671,0,0,1,38.328-.937,4.994,4.994,0,0,1,37.5-4.021Zm2.468.154q0,2.109,1.23,2.109a1.215,1.215,0,0,0,1.172-.688V-5.464a1.182,1.182,0,0,0-1.157-.7q-1.143,0-1.238,1.846Zm5.969-.168A4.677,4.677,0,0,1,46.4-6.149a3.3,3.3,0,0,1,1.326-1.425,3.993,3.993,0,0,1,2.029-.5,3.644,3.644,0,0,1,2.805,1.1,4.23,4.23,0,0,1,1.025,3v.088A4.1,4.1,0,0,1,52.555-.941,3.654,3.654,0,0,1,49.768.146,3.7,3.7,0,0,1,47.051-.868a3.968,3.968,0,0,1-1.106-2.75Zm2.468.154a2.949,2.949,0,0,0,.344,1.611,1.147,1.147,0,0,0,1.018.513q1.318,0,1.348-2.029v-.249q0-2.131-1.362-2.131-1.238,0-1.34,1.838ZM58.821-2.227a.57.57,0,0,0-.33-.505,5.013,5.013,0,0,0-1.252-.4,5.711,5.711,0,0,1-1.523-.538,2.552,2.552,0,0,1-.916-.809,1.933,1.933,0,0,1-.315-1.091,2.19,2.19,0,0,1,.9-1.8,3.711,3.711,0,0,1,2.358-.707,4.112,4.112,0,0,1,2.52.71,2.222,2.222,0,0,1,.952,1.868H58.74q0-.952-1-.952a1,1,0,0,0-.652.216.669.669,0,0,0-.264.538.614.614,0,0,0,.322.535,3.045,3.045,0,0,0,1.029.337,8.893,8.893,0,0,1,1.241.315A2.255,2.255,0,0,1,61.2-2.3a2.075,2.075,0,0,1-.963,1.765,4.224,4.224,0,0,1-2.494.681A4.31,4.31,0,0,1,55.928-.22a3.037,3.037,0,0,1-1.245-1,2.256,2.256,0,0,1-.447-1.326h2.307a.954.954,0,0,0,.366.8,1.506,1.506,0,0,0,.9.253,1.185,1.185,0,0,0,.758-.205A.656.656,0,0,0,58.821-2.227Z" transform="translate(684.811 1697.488)" fill="#14263e"/>
    <path id="Trazado_165341" data-name="Trazado 165341" d="M6.863-1.992H3.34L2.725,0H-.022L3.889-10.664H6.306L10.247,0H7.485ZM3.955-3.977H6.248L5.1-7.676ZM18.267-3.9a4.83,4.83,0,0,1-.806,3A2.7,2.7,0,0,1,15.19.146a2.342,2.342,0,0,1-1.948-.959L13.14,0H10.928V-11.25H13.4v3.962a2.259,2.259,0,0,1,1.78-.784,2.7,2.7,0,0,1,2.285,1.062,4.855,4.855,0,0,1,.806,2.988Zm-2.476-.157a3.222,3.222,0,0,0-.3-1.627,1.025,1.025,0,0,0-.934-.486,1.182,1.182,0,0,0-1.157.636v3.144a1.188,1.188,0,0,0,1.172.629,1.048,1.048,0,0,0,1.106-.848A6.091,6.091,0,0,0,15.791-4.054ZM21.958,0H19.482V-7.925h2.476ZM19.336-9.968a1.1,1.1,0,0,1,.381-.864,1.437,1.437,0,0,1,.989-.337,1.437,1.437,0,0,1,.989.337,1.1,1.1,0,0,1,.381.864,1.1,1.1,0,0,1-.381.864,1.437,1.437,0,0,1-.989.337,1.437,1.437,0,0,1-.989-.337A1.1,1.1,0,0,1,19.336-9.968ZM27.312.146A4.074,4.074,0,0,1,24.36-.941a3.756,3.756,0,0,1-1.128-2.831v-.205a4.867,4.867,0,0,1,.45-2.146A3.3,3.3,0,0,1,25-7.562a3.969,3.969,0,0,1,2.051-.509,3.43,3.43,0,0,1,2.637,1.036,4.073,4.073,0,0,1,.967,2.889v.959H25.745a1.779,1.779,0,0,0,.579,1.047,1.722,1.722,0,0,0,1.157.381,2.218,2.218,0,0,0,1.831-.82l1.128,1.333A3.153,3.153,0,0,1,29.132-.231,4.418,4.418,0,0,1,27.312.146Zm-.278-6.313q-1.084,0-1.289,1.436h2.49v-.19a1.223,1.223,0,0,0-.3-.919A1.2,1.2,0,0,0,27.034-6.167Zm9.4.476-.813-.059a1.46,1.46,0,0,0-1.494.732V0H31.663V-7.925h2.314l.081,1.018a1.911,1.911,0,0,1,1.736-1.165,2.407,2.407,0,0,1,.688.088Zm4.131-4.2v1.97h1.3v1.714h-1.3v3.625a.926.926,0,0,0,.161.623.864.864,0,0,0,.637.176,3.621,3.621,0,0,0,.615-.044V-.066a4.555,4.555,0,0,1-1.392.212,2.586,2.586,0,0,1-1.882-.6A2.462,2.462,0,0,1,38.1-2.278V-6.211H37.09V-7.925H38.1V-9.9Zm1.743,5.859a4.677,4.677,0,0,1,.461-2.113A3.3,3.3,0,0,1,44.1-7.573a3.993,3.993,0,0,1,2.029-.5,3.644,3.644,0,0,1,2.805,1.1,4.23,4.23,0,0,1,1.025,3v.088A4.1,4.1,0,0,1,48.929-.941,3.654,3.654,0,0,1,46.143.146,3.7,3.7,0,0,1,43.425-.868a3.968,3.968,0,0,1-1.106-2.75Zm2.468.154a2.949,2.949,0,0,0,.344,1.611,1.147,1.147,0,0,0,1.018.513q1.318,0,1.348-2.029v-.249q0-2.131-1.362-2.131-1.238,0-1.34,1.838ZM55.2-2.227a.57.57,0,0,0-.33-.505,5.013,5.013,0,0,0-1.252-.4,5.711,5.711,0,0,1-1.523-.538,2.552,2.552,0,0,1-.916-.809,1.933,1.933,0,0,1-.315-1.091,2.19,2.19,0,0,1,.9-1.8,3.711,3.711,0,0,1,2.358-.707,4.112,4.112,0,0,1,2.52.71,2.222,2.222,0,0,1,.952,1.868H55.115q0-.952-1-.952a1,1,0,0,0-.652.216.669.669,0,0,0-.264.538.614.614,0,0,0,.322.535,3.045,3.045,0,0,0,1.029.337,8.893,8.893,0,0,1,1.241.315,2.255,2.255,0,0,1,1.787,2.2,2.075,2.075,0,0,1-.963,1.765,4.224,4.224,0,0,1-2.494.681A4.31,4.31,0,0,1,52.3-.22a3.037,3.037,0,0,1-1.245-1,2.256,2.256,0,0,1-.447-1.326h2.307a.954.954,0,0,0,.366.8,1.506,1.506,0,0,0,.9.253,1.185,1.185,0,0,0,.758-.205A.656.656,0,0,0,55.2-2.227Z" transform="translate(523.32 1697.488)" fill="#14263e"/>
    <path id="Trazado_165336" data-name="Trazado 165336" d="M102.912,0A102.912,102.912,0,1,1,0,102.912,102.912,102.912,0,0,1,102.912,0Z" transform="translate(288 1590)" fill="none" stroke="#75b52f" stroke-width="4" opacity="0.8"/>
    <path id="Trazado_165342" data-name="Trazado 165342" d="M10.691-4.092a4.414,4.414,0,0,1-.681,2.229,4.108,4.108,0,0,1-1.747,1.5A5.947,5.947,0,0,1,5.694.166,4.746,4.746,0,0,1,1.942-1.386,6.409,6.409,0,0,1,.573-5.769v-.6a7.316,7.316,0,0,1,.618-3.109,4.686,4.686,0,0,1,1.781-2.059,4.968,4.968,0,0,1,2.689-.726A5.209,5.209,0,0,1,9.2-11.1a4.575,4.575,0,0,1,1.519,3.192H7.811A2.165,2.165,0,0,0,7.255-9.5a2.287,2.287,0,0,0-1.594-.481,1.74,1.74,0,0,0-1.594.813,5.228,5.228,0,0,0-.531,2.6v.855a5.785,5.785,0,0,0,.486,2.764,1.777,1.777,0,0,0,1.673.83A2.237,2.237,0,0,0,7.23-2.59a2.008,2.008,0,0,0,.564-1.5ZM14.892,0H12.086V-12.75h2.806Zm6.782,0a3.159,3.159,0,0,1-.266-.805A2.6,2.6,0,0,1,19.25.166,3.187,3.187,0,0,1,17.091-.6a2.444,2.444,0,0,1-.888-1.93A2.512,2.512,0,0,1,17.282-4.74a5.5,5.5,0,0,1,3.138-.747h.863v-.475q0-1.243-1.071-1.243a.875.875,0,0,0-1,.984h-2.8a2.508,2.508,0,0,1,1.108-2.114,4.657,4.657,0,0,1,2.826-.813,4.083,4.083,0,0,1,2.714.838,2.915,2.915,0,0,1,1.021,2.3v3.976a4.072,4.072,0,0,0,.382,1.893V0ZM19.922-1.826a1.56,1.56,0,0,0,.867-.224,1.4,1.4,0,0,0,.494-.506V-3.993H20.47q-1.461,0-1.461,1.312a.8.8,0,0,0,.257.618A.931.931,0,0,0,19.922-1.826Zm10.417-.7a.646.646,0,0,0-.374-.573,5.682,5.682,0,0,0-1.419-.448,6.473,6.473,0,0,1-1.727-.61,2.892,2.892,0,0,1-1.038-.917,2.19,2.19,0,0,1-.357-1.237,2.482,2.482,0,0,1,1.021-2.038,4.206,4.206,0,0,1,2.673-.8,4.66,4.66,0,0,1,2.855.805,2.518,2.518,0,0,1,1.079,2.117H30.248q0-1.079-1.137-1.079a1.127,1.127,0,0,0-.739.245.758.758,0,0,0-.3.61.7.7,0,0,0,.365.606,3.451,3.451,0,0,0,1.166.382,10.078,10.078,0,0,1,1.407.357,2.556,2.556,0,0,1,2.025,2.5,2.352,2.352,0,0,1-1.092,2,4.787,4.787,0,0,1-2.826.772,4.885,4.885,0,0,1-2.059-.415,3.442,3.442,0,0,1-1.411-1.129,2.556,2.556,0,0,1-.506-1.5h2.615a1.081,1.081,0,0,0,.415.909,1.707,1.707,0,0,0,1.021.286,1.343,1.343,0,0,0,.859-.232A.743.743,0,0,0,30.339-2.523ZM37.3,0H34.49V-8.981H37.3ZM34.324-11.3a1.249,1.249,0,0,1,.432-.979,1.629,1.629,0,0,1,1.121-.382A1.629,1.629,0,0,1,37-12.277a1.249,1.249,0,0,1,.432.979,1.249,1.249,0,0,1-.432.979,1.629,1.629,0,0,1-1.121.382,1.629,1.629,0,0,1-1.121-.382A1.249,1.249,0,0,1,34.324-11.3ZM39.669,0V-7.039h-1.3V-8.981h1.3v-.3a3.429,3.429,0,0,1,1.179-2.748,4.71,4.71,0,0,1,3.063-.9,10.869,10.869,0,0,1,2.922.481l-.382,2.208-.465-.125a7.4,7.4,0,0,0-1.909-.241q-1.6,0-1.6,1.461v.158h1.76v1.942h-1.76V0Zm8.45,0H45.306V-8.981H48.12Zm5.5-1.992a1.244,1.244,0,0,0,.913-.32,1.172,1.172,0,0,0,.315-.892h2.623A3.105,3.105,0,0,1,56.416-.78a3.937,3.937,0,0,1-2.727.946A3.986,3.986,0,0,1,50.6-1.062a4.841,4.841,0,0,1-1.129-3.4v-.116a5.471,5.471,0,0,1,.5-2.4,3.656,3.656,0,0,1,1.448-1.6,4.319,4.319,0,0,1,2.241-.56,3.887,3.887,0,0,1,2.781.971,3.445,3.445,0,0,1,1.029,2.631H54.852a1.536,1.536,0,0,0-.34-1.071,1.175,1.175,0,0,0-.913-.374q-1.087,0-1.27,1.386a9.781,9.781,0,0,0-.058,1.212,3.842,3.842,0,0,0,.324,1.876A1.121,1.121,0,0,0,53.623-1.992ZM63.717,0a3.158,3.158,0,0,1-.266-.805,2.6,2.6,0,0,1-2.158.971A3.187,3.187,0,0,1,59.135-.6a2.444,2.444,0,0,1-.888-1.93A2.512,2.512,0,0,1,59.326-4.74a5.5,5.5,0,0,1,3.138-.747h.863v-.475q0-1.243-1.071-1.243a.875.875,0,0,0-1,.984h-2.8a2.508,2.508,0,0,1,1.108-2.114A4.657,4.657,0,0,1,62.4-9.147a4.083,4.083,0,0,1,2.714.838,2.915,2.915,0,0,1,1.021,2.3v3.976a4.072,4.072,0,0,0,.382,1.893V0ZM61.965-1.826a1.56,1.56,0,0,0,.867-.224,1.4,1.4,0,0,0,.494-.506V-3.993h-.813q-1.461,0-1.461,1.312a.8.8,0,0,0,.257.618A.931.931,0,0,0,61.965-1.826Zm9.513-.166a1.244,1.244,0,0,0,.913-.32,1.172,1.172,0,0,0,.315-.892H75.33A3.105,3.105,0,0,1,74.271-.78a3.937,3.937,0,0,1-2.727.946,3.986,3.986,0,0,1-3.088-1.229,4.841,4.841,0,0,1-1.129-3.4v-.116a5.471,5.471,0,0,1,.5-2.4,3.656,3.656,0,0,1,1.448-1.6,4.319,4.319,0,0,1,2.241-.56,3.887,3.887,0,0,1,2.781.971A3.445,3.445,0,0,1,75.33-5.545H72.707a1.536,1.536,0,0,0-.34-1.071,1.175,1.175,0,0,0-.913-.374q-1.087,0-1.27,1.386a9.782,9.782,0,0,0-.058,1.212,3.842,3.842,0,0,0,.324,1.876A1.121,1.121,0,0,0,71.478-1.992ZM79.463,0H76.658V-8.981h2.806ZM76.492-11.3a1.249,1.249,0,0,1,.432-.979,1.629,1.629,0,0,1,1.121-.382,1.629,1.629,0,0,1,1.121.382,1.249,1.249,0,0,1,.432.979,1.249,1.249,0,0,1-.432.979,1.629,1.629,0,0,1-1.121.382,1.629,1.629,0,0,1-1.121-.382A1.249,1.249,0,0,1,76.492-11.3Zm4.341,6.724a5.3,5.3,0,0,1,.523-2.395,3.74,3.74,0,0,1,1.5-1.615,4.525,4.525,0,0,1,2.3-.564A4.13,4.13,0,0,1,88.337-7.9,4.794,4.794,0,0,1,89.5-4.5v.1a4.651,4.651,0,0,1-1.166,3.333A4.141,4.141,0,0,1,85.174.166a4.188,4.188,0,0,1-3.08-1.15A4.5,4.5,0,0,1,80.841-4.1Zm2.8.174a3.342,3.342,0,0,0,.39,1.826,1.3,1.3,0,0,0,1.154.581q1.494,0,1.527-2.3v-.282q0-2.416-1.544-2.416-1.4,0-1.519,2.083ZM85.54-12.75h2.955l-2.308,2.606-2.283,0ZM93.3-8.981l.091,1.054a3.046,3.046,0,0,1,2.565-1.22,2.562,2.562,0,0,1,2.1.838,3.991,3.991,0,0,1,.718,2.523V0H95.965V-5.669a1.516,1.516,0,0,0-.274-1,1.267,1.267,0,0,0-1-.32,1.334,1.334,0,0,0-1.22.647V0h-2.8V-8.981Z" transform="translate(336.734 1651.321)" fill="#14263e"/>
    <path id="Trazado_165349" data-name="Trazado 165349" d="M4.723-1.444a1.824,1.824,0,0,0,1.253-.44,1.5,1.5,0,0,0,.531-1.087h1.9a2.963,2.963,0,0,1-.523,1.565A3.43,3.43,0,0,1,6.558-.257a3.958,3.958,0,0,1-1.81.423A3.829,3.829,0,0,1,1.76-1.054a4.84,4.84,0,0,1-1.1-3.37v-.208a4.759,4.759,0,0,1,1.1-3.283A3.8,3.8,0,0,1,4.74-9.147a3.69,3.69,0,0,1,2.611.934A3.345,3.345,0,0,1,8.409-5.761h-1.9a1.847,1.847,0,0,0-.527-1.27,1.7,1.7,0,0,0-1.258-.5,1.775,1.775,0,0,0-1.511.71,3.621,3.621,0,0,0-.54,2.154v.324A3.682,3.682,0,0,0,3.2-2.162,1.773,1.773,0,0,0,4.723-1.444Zm10.65.564A3.128,3.128,0,0,1,12.85.166a2.788,2.788,0,0,1-2.212-.855,3.637,3.637,0,0,1-.751-2.474V-8.981H11.9v5.794q0,1.71,1.419,1.71a1.993,1.993,0,0,0,1.984-1.054v-6.45h2.017V0h-1.9ZM24.745,0a3.113,3.113,0,0,1-.232-.838,3.14,3.14,0,0,1-2.357,1,3.169,3.169,0,0,1-2.208-.772,2.47,2.47,0,0,1-.855-1.909,2.55,2.55,0,0,1,1.067-2.2,5.169,5.169,0,0,1,3.051-.768h1.237v-.589a1.573,1.573,0,0,0-.39-1.116,1.547,1.547,0,0,0-1.187-.419,1.777,1.777,0,0,0-1.129.344,1.066,1.066,0,0,0-.44.876H19.283a2.239,2.239,0,0,1,.49-1.382A3.263,3.263,0,0,1,21.1-8.782a4.68,4.68,0,0,1,1.88-.365,3.769,3.769,0,0,1,2.515.793,2.827,2.827,0,0,1,.963,2.229v4.051A4.591,4.591,0,0,0,26.8-.141V0ZM22.528-1.453a2.294,2.294,0,0,0,1.125-.291,1.941,1.941,0,0,0,.793-.78V-4.217H23.358a2.973,2.973,0,0,0-1.685.39,1.264,1.264,0,0,0-.564,1.1,1.179,1.179,0,0,0,.386.926A1.5,1.5,0,0,0,22.528-1.453ZM30.721,0H28.7V-12.75h2.017Zm4.341,0H33.045V-8.981h2.017ZM32.921-11.314a1.071,1.071,0,0,1,.295-.772,1.113,1.113,0,0,1,.843-.307,1.127,1.127,0,0,1,.847.307,1.062,1.062,0,0,1,.3.772,1.038,1.038,0,0,1-.3.76,1.136,1.136,0,0,1-.847.3,1.122,1.122,0,0,1-.843-.3A1.046,1.046,0,0,1,32.921-11.314Zm6.865.149v2.183h1.585v1.494H39.786v5.014a1.1,1.1,0,0,0,.2.743.943.943,0,0,0,.726.228,3.107,3.107,0,0,0,.706-.083V-.025a4.968,4.968,0,0,1-1.328.191q-2.324,0-2.324-2.565V-7.487H36.291V-8.981h1.478v-2.183ZM48.277,0a3.113,3.113,0,0,1-.232-.838,3.14,3.14,0,0,1-2.357,1,3.169,3.169,0,0,1-2.208-.772,2.47,2.47,0,0,1-.855-1.909,2.55,2.55,0,0,1,1.067-2.2,5.169,5.169,0,0,1,3.051-.768h1.237v-.589a1.573,1.573,0,0,0-.39-1.116A1.547,1.547,0,0,0,46.4-7.612a1.777,1.777,0,0,0-1.129.344,1.066,1.066,0,0,0-.44.876H42.815a2.239,2.239,0,0,1,.49-1.382,3.263,3.263,0,0,1,1.332-1.009,4.68,4.68,0,0,1,1.88-.365,3.769,3.769,0,0,1,2.515.793A2.827,2.827,0,0,1,50-6.126v4.051a4.591,4.591,0,0,0,.34,1.934V0ZM46.061-1.453a2.294,2.294,0,0,0,1.125-.291,1.941,1.941,0,0,0,.793-.78V-4.217H46.891a2.973,2.973,0,0,0-1.685.39,1.264,1.264,0,0,0-.564,1.1,1.179,1.179,0,0,0,.386.926A1.5,1.5,0,0,0,46.061-1.453Zm8.575-9.712v2.183h1.585v1.494H54.636v5.014a1.1,1.1,0,0,0,.2.743.943.943,0,0,0,.726.228,3.107,3.107,0,0,0,.706-.083V-.025a4.968,4.968,0,0,1-1.328.191q-2.324,0-2.324-2.565V-7.487H51.141V-8.981h1.478v-2.183ZM59.907,0H57.89V-8.981h2.017ZM57.765-11.314a1.071,1.071,0,0,1,.295-.772,1.113,1.113,0,0,1,.843-.307,1.127,1.127,0,0,1,.847.307,1.062,1.062,0,0,1,.3.772,1.038,1.038,0,0,1-.3.76,1.136,1.136,0,0,1-.847.3,1.122,1.122,0,0,1-.843-.3A1.046,1.046,0,0,1,57.765-11.314Zm7.5,8.757,1.9-6.425h2.083L66.141,0H64.389L61.251-8.981h2.092Zm4.74-2.017a5.3,5.3,0,0,1,.523-2.378A3.819,3.819,0,0,1,72-8.579a4.14,4.14,0,0,1,2.175-.569,3.923,3.923,0,0,1,2.951,1.17,4.6,4.6,0,0,1,1.224,3.1l.008.473a5.343,5.343,0,0,1-.51,2.374A3.773,3.773,0,0,1,76.388-.407a4.17,4.17,0,0,1-2.2.573A3.9,3.9,0,0,1,71.15-1.1a4.848,4.848,0,0,1-1.141-3.374Zm2.017.174A3.619,3.619,0,0,0,72.6-2.229a1.862,1.862,0,0,0,1.594.784,1.842,1.842,0,0,0,1.59-.8,4,4,0,0,0,.569-2.333,3.572,3.572,0,0,0-.585-2.158,1.869,1.869,0,0,0-1.59-.8,1.852,1.852,0,0,0-1.569.784A3.922,3.922,0,0,0,72.026-4.4ZM85.1-2.44a.914.914,0,0,0-.444-.822,4.723,4.723,0,0,0-1.473-.5,7.574,7.574,0,0,1-1.718-.548,2.293,2.293,0,0,1-1.511-2.117,2.391,2.391,0,0,1,.979-1.942,3.872,3.872,0,0,1,2.49-.78,4.029,4.029,0,0,1,2.6.8,2.529,2.529,0,0,1,.992,2.067H85a1.243,1.243,0,0,0-.432-.967,1.654,1.654,0,0,0-1.146-.386,1.787,1.787,0,0,0-1.083.307.968.968,0,0,0-.419.822.818.818,0,0,0,.39.722,5.365,5.365,0,0,0,1.577.519,7.466,7.466,0,0,1,1.864.623,2.639,2.639,0,0,1,1,.867,2.212,2.212,0,0,1,.328,1.229,2.34,2.34,0,0,1-1,1.963,4.283,4.283,0,0,1-2.631.751,4.644,4.644,0,0,1-1.967-.4,3.238,3.238,0,0,1-1.345-1.1,2.594,2.594,0,0,1-.481-1.5h1.959a1.421,1.421,0,0,0,.54,1.1,2.1,2.1,0,0,0,1.32.386,2.04,2.04,0,0,0,1.212-.3A.938.938,0,0,0,85.1-2.44Z" transform="translate(347.003 1677.261)" fill="#14263e"/>
    <path id="Trazado_165350" data-name="Trazado 165350" d="M2.4,0A2.4,2.4,0,1,1,0,2.4,2.4,2.4,0,0,1,2.4,0Z" transform="translate(338.951 1671.653)" fill="#f75316"/>
    <path id="Trazado_165347" data-name="Trazado 165347" d="M4.723-1.444a1.824,1.824,0,0,0,1.253-.44,1.5,1.5,0,0,0,.531-1.087h1.9a2.963,2.963,0,0,1-.523,1.565A3.43,3.43,0,0,1,6.558-.257a3.958,3.958,0,0,1-1.81.423A3.829,3.829,0,0,1,1.76-1.054a4.84,4.84,0,0,1-1.1-3.37v-.208a4.759,4.759,0,0,1,1.1-3.283A3.8,3.8,0,0,1,4.74-9.147a3.69,3.69,0,0,1,2.611.934A3.345,3.345,0,0,1,8.409-5.761h-1.9a1.847,1.847,0,0,0-.527-1.27,1.7,1.7,0,0,0-1.258-.5,1.775,1.775,0,0,0-1.511.71,3.621,3.621,0,0,0-.54,2.154v.324A3.682,3.682,0,0,0,3.2-2.162,1.773,1.773,0,0,0,4.723-1.444Zm10.65.564A3.128,3.128,0,0,1,12.85.166a2.788,2.788,0,0,1-2.212-.855,3.637,3.637,0,0,1-.751-2.474V-8.981H11.9v5.794q0,1.71,1.419,1.71a1.993,1.993,0,0,0,1.984-1.054v-6.45h2.017V0h-1.9ZM24.745,0a3.113,3.113,0,0,1-.232-.838,3.14,3.14,0,0,1-2.357,1,3.169,3.169,0,0,1-2.208-.772,2.47,2.47,0,0,1-.855-1.909,2.55,2.55,0,0,1,1.067-2.2,5.169,5.169,0,0,1,3.051-.768h1.237v-.589a1.573,1.573,0,0,0-.39-1.116,1.547,1.547,0,0,0-1.187-.419,1.777,1.777,0,0,0-1.129.344,1.066,1.066,0,0,0-.44.876H19.283a2.239,2.239,0,0,1,.49-1.382A3.263,3.263,0,0,1,21.1-8.782a4.68,4.68,0,0,1,1.88-.365,3.769,3.769,0,0,1,2.515.793,2.827,2.827,0,0,1,.963,2.229v4.051A4.591,4.591,0,0,0,26.8-.141V0ZM22.528-1.453a2.294,2.294,0,0,0,1.125-.291,1.941,1.941,0,0,0,.793-.78V-4.217H23.358a2.973,2.973,0,0,0-1.685.39,1.264,1.264,0,0,0-.564,1.1,1.179,1.179,0,0,0,.386.926A1.5,1.5,0,0,0,22.528-1.453Zm7.919-7.529.058,1.038a3.229,3.229,0,0,1,2.615-1.2q2.806,0,2.855,3.212V0H33.958V-5.819a1.85,1.85,0,0,0-.369-1.266A1.554,1.554,0,0,0,32.381-7.5a1.944,1.944,0,0,0-1.818,1.1V0H28.546V-8.981Zm10.11-2.183v2.183h1.585v1.494H40.558v5.014a1.1,1.1,0,0,0,.2.743.943.943,0,0,0,.726.228,3.107,3.107,0,0,0,.706-.083V-.025a4.968,4.968,0,0,1-1.328.191q-2.324,0-2.324-2.565V-7.487H37.063V-8.981h1.478v-2.183ZM45.829,0H43.812V-8.981h2.017ZM43.687-11.314a1.071,1.071,0,0,1,.295-.772,1.113,1.113,0,0,1,.843-.307,1.127,1.127,0,0,1,.847.307,1.062,1.062,0,0,1,.3.772,1.038,1.038,0,0,1-.3.76,1.136,1.136,0,0,1-.847.3,1.122,1.122,0,0,1-.843-.3A1.046,1.046,0,0,1,43.687-11.314Zm6.865.149v2.183h1.585v1.494H50.552v5.014a1.1,1.1,0,0,0,.2.743.943.943,0,0,0,.726.228,3.107,3.107,0,0,0,.706-.083V-.025a4.968,4.968,0,0,1-1.328.191q-2.324,0-2.324-2.565V-7.487H47.057V-8.981h1.478v-2.183ZM59.043,0a3.113,3.113,0,0,1-.232-.838,3.14,3.14,0,0,1-2.357,1,3.169,3.169,0,0,1-2.208-.772,2.47,2.47,0,0,1-.855-1.909,2.55,2.55,0,0,1,1.067-2.2,5.169,5.169,0,0,1,3.051-.768h1.237v-.589a1.573,1.573,0,0,0-.39-1.116,1.547,1.547,0,0,0-1.187-.419,1.777,1.777,0,0,0-1.129.344,1.066,1.066,0,0,0-.44.876H53.582a2.239,2.239,0,0,1,.49-1.382A3.263,3.263,0,0,1,55.4-8.782a4.68,4.68,0,0,1,1.88-.365,3.769,3.769,0,0,1,2.515.793,2.827,2.827,0,0,1,.963,2.229v4.051A4.591,4.591,0,0,0,61.1-.141V0ZM56.827-1.453a2.294,2.294,0,0,0,1.125-.291,1.941,1.941,0,0,0,.793-.78V-4.217H57.657a2.973,2.973,0,0,0-1.685.39,1.264,1.264,0,0,0-.564,1.1,1.179,1.179,0,0,0,.386.926A1.5,1.5,0,0,0,56.827-1.453ZM65.4-11.165v2.183h1.585v1.494H65.4v5.014a1.1,1.1,0,0,0,.2.743.943.943,0,0,0,.726.228,3.107,3.107,0,0,0,.706-.083V-.025a4.968,4.968,0,0,1-1.328.191q-2.324,0-2.324-2.565V-7.487H61.907V-8.981h1.478v-2.183ZM70.673,0H68.656V-8.981h2.017ZM68.531-11.314a1.071,1.071,0,0,1,.295-.772,1.113,1.113,0,0,1,.843-.307,1.127,1.127,0,0,1,.847.307,1.062,1.062,0,0,1,.3.772,1.038,1.038,0,0,1-.3.76,1.136,1.136,0,0,1-.847.3,1.122,1.122,0,0,1-.843-.3A1.046,1.046,0,0,1,68.531-11.314Zm7.5,8.757,1.9-6.425H80.02L76.907,0H75.155L72.018-8.981h2.092Zm4.74-2.017A5.3,5.3,0,0,1,81.3-6.952a3.819,3.819,0,0,1,1.469-1.627,4.14,4.14,0,0,1,2.175-.569,3.923,3.923,0,0,1,2.951,1.17,4.6,4.6,0,0,1,1.224,3.1l.008.473a5.343,5.343,0,0,1-.51,2.374A3.773,3.773,0,0,1,87.154-.407a4.17,4.17,0,0,1-2.2.573A3.9,3.9,0,0,1,81.916-1.1a4.848,4.848,0,0,1-1.141-3.374Zm2.017.174a3.619,3.619,0,0,0,.573,2.171,1.862,1.862,0,0,0,1.594.784,1.842,1.842,0,0,0,1.59-.8,4,4,0,0,0,.569-2.333,3.572,3.572,0,0,0-.585-2.158,1.869,1.869,0,0,0-1.59-.8,1.852,1.852,0,0,0-1.569.784A3.922,3.922,0,0,0,82.792-4.4ZM95.866-2.44a.914.914,0,0,0-.444-.822,4.723,4.723,0,0,0-1.473-.5,7.574,7.574,0,0,1-1.718-.548,2.293,2.293,0,0,1-1.511-2.117A2.391,2.391,0,0,1,91.7-8.367a3.872,3.872,0,0,1,2.49-.78,4.029,4.029,0,0,1,2.6.8,2.529,2.529,0,0,1,.992,2.067H95.766a1.243,1.243,0,0,0-.432-.967,1.654,1.654,0,0,0-1.146-.386,1.787,1.787,0,0,0-1.083.307.968.968,0,0,0-.419.822.818.818,0,0,0,.39.722,5.365,5.365,0,0,0,1.577.519,7.466,7.466,0,0,1,1.864.623,2.639,2.639,0,0,1,1,.867,2.212,2.212,0,0,1,.328,1.229,2.34,2.34,0,0,1-1,1.963,4.283,4.283,0,0,1-2.631.751,4.644,4.644,0,0,1-1.967-.4,3.238,3.238,0,0,1-1.345-1.1,2.594,2.594,0,0,1-.481-1.5h1.959a1.421,1.421,0,0,0,.54,1.1,2.1,2.1,0,0,0,1.32.386,2.04,2.04,0,0,0,1.212-.3A.938.938,0,0,0,95.866-2.44Z" transform="translate(341.136 1698.891)" fill="#14263e"/>
    <path id="Trazado_165348" data-name="Trazado 165348" d="M2.4,0A2.4,2.4,0,1,1,0,2.4,2.4,2.4,0,0,1,2.4,0Z" transform="translate(333.064 1693.005)" fill="#f75316"/>
    <path id="Trazado_165345" data-name="Trazado 165345" d="M4.723-1.444a1.824,1.824,0,0,0,1.253-.44,1.5,1.5,0,0,0,.531-1.087h1.9a2.963,2.963,0,0,1-.523,1.565A3.43,3.43,0,0,1,6.558-.257a3.958,3.958,0,0,1-1.81.423A3.829,3.829,0,0,1,1.76-1.054a4.84,4.84,0,0,1-1.1-3.37v-.208a4.759,4.759,0,0,1,1.1-3.283A3.8,3.8,0,0,1,4.74-9.147a3.69,3.69,0,0,1,2.611.934A3.345,3.345,0,0,1,8.409-5.761h-1.9a1.847,1.847,0,0,0-.527-1.27,1.7,1.7,0,0,0-1.258-.5,1.775,1.775,0,0,0-1.511.71,3.621,3.621,0,0,0-.54,2.154v.324A3.682,3.682,0,0,0,3.2-2.162,1.773,1.773,0,0,0,4.723-1.444Zm9.911-5.694a4.991,4.991,0,0,0-.822-.066,1.85,1.85,0,0,0-1.868,1.063V0H9.928V-8.981h1.926l.05,1a2.273,2.273,0,0,1,2.025-1.17,1.888,1.888,0,0,1,.714.116Zm.6,2.565a5.3,5.3,0,0,1,.523-2.378,3.819,3.819,0,0,1,1.469-1.627A4.14,4.14,0,0,1,19.4-9.147a3.923,3.923,0,0,1,2.951,1.17,4.6,4.6,0,0,1,1.224,3.1l.008.473a5.343,5.343,0,0,1-.51,2.374A3.773,3.773,0,0,1,21.611-.407a4.17,4.17,0,0,1-2.2.573A3.9,3.9,0,0,1,16.373-1.1a4.848,4.848,0,0,1-1.141-3.374Zm2.017.174a3.619,3.619,0,0,0,.573,2.171,1.862,1.862,0,0,0,1.594.784,1.842,1.842,0,0,0,1.59-.8,4,4,0,0,0,.569-2.333,3.572,3.572,0,0,0-.585-2.158,1.869,1.869,0,0,0-1.59-.8,1.852,1.852,0,0,0-1.569.784A3.922,3.922,0,0,0,17.249-4.4ZM27.16-8.981l.058,1.038a3.229,3.229,0,0,1,2.615-1.2q2.806,0,2.855,3.212V0H30.671V-5.819A1.85,1.85,0,0,0,30.3-7.085,1.554,1.554,0,0,0,29.094-7.5a1.944,1.944,0,0,0-1.818,1.1V0H25.259V-8.981Zm7.205,4.408a5.3,5.3,0,0,1,.523-2.378,3.819,3.819,0,0,1,1.469-1.627,4.14,4.14,0,0,1,2.175-.569,3.923,3.923,0,0,1,2.951,1.17,4.6,4.6,0,0,1,1.224,3.1l.008.473a5.343,5.343,0,0,1-.51,2.374A3.773,3.773,0,0,1,40.744-.407a4.17,4.17,0,0,1-2.2.573A3.9,3.9,0,0,1,35.507-1.1a4.848,4.848,0,0,1-1.141-3.374Zm2.017.174a3.619,3.619,0,0,0,.573,2.171,1.862,1.862,0,0,0,1.594.784,1.842,1.842,0,0,0,1.59-.8,4,4,0,0,0,.569-2.333,3.572,3.572,0,0,0-.585-2.158,1.869,1.869,0,0,0-1.59-.8,1.852,1.852,0,0,0-1.569.784A3.922,3.922,0,0,0,36.382-4.4ZM46.567,0H44.55V-12.75h2.017Zm1.818-4.574a5.3,5.3,0,0,1,.523-2.378,3.819,3.819,0,0,1,1.469-1.627,4.14,4.14,0,0,1,2.175-.569A3.923,3.923,0,0,1,55.5-7.977a4.6,4.6,0,0,1,1.224,3.1l.008.473a5.343,5.343,0,0,1-.51,2.374A3.773,3.773,0,0,1,54.764-.407a4.17,4.17,0,0,1-2.2.573A3.9,3.9,0,0,1,49.527-1.1a4.848,4.848,0,0,1-1.141-3.374ZM50.4-4.4a3.619,3.619,0,0,0,.573,2.171,1.862,1.862,0,0,0,1.594.784,1.842,1.842,0,0,0,1.59-.8,4,4,0,0,0,.569-2.333,3.572,3.572,0,0,0-.585-2.158,1.869,1.869,0,0,0-1.59-.8,1.852,1.852,0,0,0-1.569.784A3.922,3.922,0,0,0,50.4-4.4Zm2.706-8.351h2.3l-2.3,2.515-1.619,0Zm4.98,8.193A5.253,5.253,0,0,1,59.073-7.9a3.157,3.157,0,0,1,2.611-1.249A2.958,2.958,0,0,1,64.1-8.077l.091-.9h1.818V-.274a3.619,3.619,0,0,1-1.1,2.789A4.189,4.189,0,0,1,61.94,3.536a4.783,4.783,0,0,1-1.93-.411A3.429,3.429,0,0,1,58.579,2.05L59.533.838a2.883,2.883,0,0,0,2.291,1.1A2.228,2.228,0,0,0,63.41,1.4a2.084,2.084,0,0,0,.581-1.6V-.805a2.97,2.97,0,0,1-2.324.971,3.15,3.15,0,0,1-2.577-1.253A5.423,5.423,0,0,1,58.089-4.557Zm2.009.174a3.616,3.616,0,0,0,.552,2.129,1.775,1.775,0,0,0,1.531.776,1.941,1.941,0,0,0,1.81-1.046V-6.475A1.913,1.913,0,0,0,62.2-7.5a1.782,1.782,0,0,0-1.548.789A4.049,4.049,0,0,0,60.1-4.383ZM70.225,0H68.208V-8.981h2.017ZM68.083-11.314a1.071,1.071,0,0,1,.295-.772,1.113,1.113,0,0,1,.843-.307,1.127,1.127,0,0,1,.847.307,1.062,1.062,0,0,1,.3.772,1.038,1.038,0,0,1-.3.76,1.136,1.136,0,0,1-.847.3,1.122,1.122,0,0,1-.843-.3A1.046,1.046,0,0,1,68.083-11.314Zm8.027,9.87a1.824,1.824,0,0,0,1.253-.44,1.5,1.5,0,0,0,.531-1.087h1.9a2.963,2.963,0,0,1-.523,1.565,3.43,3.43,0,0,1-1.328,1.15,3.958,3.958,0,0,1-1.81.423,3.829,3.829,0,0,1-2.988-1.22,4.84,4.84,0,0,1-1.1-3.37v-.208a4.759,4.759,0,0,1,1.1-3.283,3.8,3.8,0,0,1,2.988-1.233,3.69,3.69,0,0,1,2.611.934A3.345,3.345,0,0,1,79.8-5.761h-1.9a1.847,1.847,0,0,0-.527-1.27,1.7,1.7,0,0,0-1.258-.5,1.775,1.775,0,0,0-1.511.71,3.621,3.621,0,0,0-.54,2.154v.324a3.681,3.681,0,0,0,.527,2.179A1.773,1.773,0,0,0,76.11-1.444Zm4.831-3.129a5.3,5.3,0,0,1,.523-2.378,3.819,3.819,0,0,1,1.469-1.627,4.14,4.14,0,0,1,2.175-.569,3.923,3.923,0,0,1,2.951,1.17,4.6,4.6,0,0,1,1.224,3.1l.008.473a5.343,5.343,0,0,1-.51,2.374A3.773,3.773,0,0,1,87.32-.407a4.17,4.17,0,0,1-2.2.573A3.9,3.9,0,0,1,82.082-1.1a4.848,4.848,0,0,1-1.141-3.374Zm2.017.174a3.619,3.619,0,0,0,.573,2.171,1.862,1.862,0,0,0,1.594.784,1.842,1.842,0,0,0,1.59-.8,4,4,0,0,0,.569-2.333A3.572,3.572,0,0,0,86.7-6.732a1.869,1.869,0,0,0-1.59-.8,1.852,1.852,0,0,0-1.569.784A3.922,3.922,0,0,0,82.958-4.4ZM96.032-2.44a.914.914,0,0,0-.444-.822,4.723,4.723,0,0,0-1.473-.5A7.574,7.574,0,0,1,92.4-4.308a2.293,2.293,0,0,1-1.511-2.117,2.391,2.391,0,0,1,.979-1.942,3.872,3.872,0,0,1,2.49-.78,4.029,4.029,0,0,1,2.6.8,2.529,2.529,0,0,1,.992,2.067H95.932a1.243,1.243,0,0,0-.432-.967,1.654,1.654,0,0,0-1.146-.386,1.787,1.787,0,0,0-1.083.307.968.968,0,0,0-.419.822.818.818,0,0,0,.39.722,5.365,5.365,0,0,0,1.577.519,7.466,7.466,0,0,1,1.864.623,2.639,2.639,0,0,1,1,.867,2.212,2.212,0,0,1,.328,1.229,2.34,2.34,0,0,1-1,1.963A4.283,4.283,0,0,1,94.38.166a4.644,4.644,0,0,1-1.967-.4,3.238,3.238,0,0,1-1.345-1.1,2.594,2.594,0,0,1-.481-1.5h1.959a1.421,1.421,0,0,0,.54,1.1,2.1,2.1,0,0,0,1.32.386,2.04,2.04,0,0,0,1.212-.3A.938.938,0,0,0,96.032-2.44Z" transform="translate(340.94 1720.53)" fill="#14263e"/>
    <path id="Trazado_165346" data-name="Trazado 165346" d="M2.4,0A2.4,2.4,0,1,1,0,2.4,2.4,2.4,0,0,1,2.4,0Z" transform="translate(332.889 1714.84)" fill="#f75316"/>
    <path id="Trazado_165343" data-name="Trazado 165343" d="M.681-4.557A5.253,5.253,0,0,1,1.664-7.9,3.157,3.157,0,0,1,4.275-9.147,2.958,2.958,0,0,1,6.69-8.077l.091-.9H8.6V-.274A3.619,3.619,0,0,1,7.5,2.515,4.189,4.189,0,0,1,4.532,3.536,4.783,4.783,0,0,1,2.6,3.125,3.429,3.429,0,0,1,1.17,2.05L2.125.838a2.883,2.883,0,0,0,2.291,1.1A2.228,2.228,0,0,0,6,1.4,2.084,2.084,0,0,0,6.583-.2V-.805A2.97,2.97,0,0,1,4.258.166,3.15,3.15,0,0,1,1.681-1.087,5.423,5.423,0,0,1,.681-4.557Zm2.009.174a3.616,3.616,0,0,0,.552,2.129,1.775,1.775,0,0,0,1.531.776,1.941,1.941,0,0,0,1.81-1.046V-6.475A1.913,1.913,0,0,0,4.79-7.5a1.782,1.782,0,0,0-1.548.789A4.049,4.049,0,0,0,2.689-4.383ZM14.626.166a4.173,4.173,0,0,1-3.109-1.208,4.381,4.381,0,0,1-1.191-3.217v-.249a5.389,5.389,0,0,1,.519-2.4A3.949,3.949,0,0,1,12.3-8.558a3.851,3.851,0,0,1,2.092-.589,3.525,3.525,0,0,1,2.835,1.17,4.949,4.949,0,0,1,1,3.312v.813H12.36a2.7,2.7,0,0,0,.743,1.76,2.23,2.23,0,0,0,1.639.647A2.731,2.731,0,0,0,17-2.565l1.087,1.038a3.631,3.631,0,0,1-1.44,1.249A4.509,4.509,0,0,1,14.626.166Zm-.241-7.695a1.7,1.7,0,0,0-1.341.581,3.012,3.012,0,0,0-.652,1.619h3.843v-.149A2.452,2.452,0,0,0,15.7-7.01,1.686,1.686,0,0,0,14.385-7.529Zm5.03,2.955a5.3,5.3,0,0,1,.523-2.378,3.819,3.819,0,0,1,1.469-1.627,4.14,4.14,0,0,1,2.175-.569,3.923,3.923,0,0,1,2.951,1.17,4.6,4.6,0,0,1,1.224,3.1l.008.473a5.343,5.343,0,0,1-.51,2.374A3.773,3.773,0,0,1,25.795-.407a4.17,4.17,0,0,1-2.2.573A3.9,3.9,0,0,1,20.557-1.1a4.848,4.848,0,0,1-1.141-3.374Zm2.017.174a3.619,3.619,0,0,0,.573,2.171,1.862,1.862,0,0,0,1.594.784,1.842,1.842,0,0,0,1.59-.8,4,4,0,0,0,.569-2.333,3.572,3.572,0,0,0-.585-2.158,1.869,1.869,0,0,0-1.59-.8,1.852,1.852,0,0,0-1.569.784A3.922,3.922,0,0,0,21.433-4.4Zm7.687-.158A5.253,5.253,0,0,1,30.1-7.9a3.157,3.157,0,0,1,2.611-1.249,2.958,2.958,0,0,1,2.416,1.071l.091-.9h1.818V-.274a3.619,3.619,0,0,1-1.1,2.789,4.189,4.189,0,0,1-2.968,1.021,4.783,4.783,0,0,1-1.93-.411A3.429,3.429,0,0,1,29.609,2.05L30.563.838a2.883,2.883,0,0,0,2.291,1.1A2.228,2.228,0,0,0,34.44,1.4a2.084,2.084,0,0,0,.581-1.6V-.805A2.97,2.97,0,0,1,32.7.166a3.15,3.15,0,0,1-2.577-1.253A5.423,5.423,0,0,1,29.119-4.557Zm2.009.174a3.616,3.616,0,0,0,.552,2.129,1.775,1.775,0,0,0,1.531.776,1.941,1.941,0,0,0,1.81-1.046V-6.475A1.913,1.913,0,0,0,33.228-7.5a1.782,1.782,0,0,0-1.548.789A4.049,4.049,0,0,0,31.128-4.383ZM43.812-7.139a4.991,4.991,0,0,0-.822-.066,1.85,1.85,0,0,0-1.868,1.063V0H39.1V-8.981h1.926l.05,1a2.273,2.273,0,0,1,2.025-1.17,1.888,1.888,0,0,1,.714.116ZM50.452,0a3.113,3.113,0,0,1-.232-.838,3.14,3.14,0,0,1-2.357,1,3.169,3.169,0,0,1-2.208-.772A2.47,2.47,0,0,1,44.8-2.515a2.55,2.55,0,0,1,1.067-2.2,5.169,5.169,0,0,1,3.051-.768h1.237v-.589a1.573,1.573,0,0,0-.39-1.116,1.547,1.547,0,0,0-1.187-.419,1.777,1.777,0,0,0-1.129.344,1.066,1.066,0,0,0-.44.876H44.99a2.239,2.239,0,0,1,.49-1.382,3.263,3.263,0,0,1,1.332-1.009,4.68,4.68,0,0,1,1.88-.365,3.769,3.769,0,0,1,2.515.793,2.827,2.827,0,0,1,.963,2.229v4.051a4.591,4.591,0,0,0,.34,1.934V0ZM48.236-1.453a2.294,2.294,0,0,0,1.125-.291,1.941,1.941,0,0,0,.793-.78V-4.217H49.066a2.973,2.973,0,0,0-1.685.39,1.264,1.264,0,0,0-.564,1.1A1.179,1.179,0,0,0,47.2-1.8,1.5,1.5,0,0,0,48.236-1.453Zm1.121-11.3h2.3l-2.3,2.515-1.619,0ZM54.818,0V-7.487h-1.37V-8.981h1.37V-9.6a3.593,3.593,0,0,1,.448-1.81,2.788,2.788,0,0,1,1.245-1.137,4.482,4.482,0,0,1,1.934-.382,5.638,5.638,0,0,1,1.274.141q.61.141,1.266.357l-.307,1.668a6.421,6.421,0,0,0-2.092-.4,1.869,1.869,0,0,0-1.336.4,1.61,1.61,0,0,0-.415,1.208v.564H58.6v1.494H56.835V0ZM61.94,0H59.923V-8.981H61.94Zm5.927-1.444a1.824,1.824,0,0,0,1.253-.44,1.5,1.5,0,0,0,.531-1.087h1.9a2.963,2.963,0,0,1-.523,1.565A3.43,3.43,0,0,1,69.7-.257a3.958,3.958,0,0,1-1.81.423A3.829,3.829,0,0,1,64.9-1.054a4.84,4.84,0,0,1-1.1-3.37v-.208a4.759,4.759,0,0,1,1.1-3.283,3.8,3.8,0,0,1,2.988-1.233,3.69,3.69,0,0,1,2.611.934,3.345,3.345,0,0,1,1.058,2.453h-1.9a1.847,1.847,0,0,0-.527-1.27,1.7,1.7,0,0,0-1.258-.5,1.775,1.775,0,0,0-1.511.71,3.621,3.621,0,0,0-.54,2.154v.324a3.681,3.681,0,0,0,.527,2.179A1.773,1.773,0,0,0,67.867-1.444ZM72.7-4.574a5.3,5.3,0,0,1,.523-2.378A3.819,3.819,0,0,1,74.69-8.579a4.14,4.14,0,0,1,2.175-.569,3.923,3.923,0,0,1,2.951,1.17,4.6,4.6,0,0,1,1.224,3.1l.008.473a5.343,5.343,0,0,1-.51,2.374A3.773,3.773,0,0,1,79.077-.407a4.17,4.17,0,0,1-2.2.573A3.9,3.9,0,0,1,73.84-1.1,4.848,4.848,0,0,1,72.7-4.474Zm2.017.174a3.619,3.619,0,0,0,.573,2.171,1.862,1.862,0,0,0,1.594.784,1.842,1.842,0,0,0,1.59-.8,4,4,0,0,0,.569-2.333,3.572,3.572,0,0,0-.585-2.158,1.869,1.869,0,0,0-1.59-.8,1.852,1.852,0,0,0-1.569.784A3.922,3.922,0,0,0,74.715-4.4ZM87.789-2.44a.914.914,0,0,0-.444-.822,4.723,4.723,0,0,0-1.473-.5,7.574,7.574,0,0,1-1.718-.548,2.293,2.293,0,0,1-1.511-2.117,2.391,2.391,0,0,1,.979-1.942,3.872,3.872,0,0,1,2.49-.78,4.029,4.029,0,0,1,2.6.8,2.529,2.529,0,0,1,.992,2.067H87.689a1.243,1.243,0,0,0-.432-.967,1.654,1.654,0,0,0-1.146-.386,1.787,1.787,0,0,0-1.083.307.968.968,0,0,0-.419.822.818.818,0,0,0,.39.722,5.365,5.365,0,0,0,1.577.519,7.466,7.466,0,0,1,1.864.623,2.639,2.639,0,0,1,1,.867,2.212,2.212,0,0,1,.328,1.229,2.34,2.34,0,0,1-1,1.963,4.283,4.283,0,0,1-2.631.751,4.644,4.644,0,0,1-1.967-.4,3.238,3.238,0,0,1-1.345-1.1,2.594,2.594,0,0,1-.481-1.5H84.3a1.421,1.421,0,0,0,.54,1.1,2.1,2.1,0,0,0,1.32.386,2.04,2.04,0,0,0,1.212-.3A.938.938,0,0,0,87.789-2.44Z" transform="translate(345.353 1742.171)" fill="#14263e"/>
    <path id="Trazado_165344" data-name="Trazado 165344" d="M2.4,0A2.4,2.4,0,1,1,0,2.4,2.4,2.4,0,0,1,2.4,0Z" transform="translate(337.281 1736.471)" fill="#f75316"/>
  </g>
</svg>
