<svg xmlns="http://www.w3.org/2000/svg" xmlns:xlink="http://www.w3.org/1999/xlink" width="505" height="309" viewBox="0 0 505 309">
  <defs>
    <linearGradient id="linear-gradient" x1="0.924" y1="1.144" x2="0.337" y2="0.252" gradientUnits="objectBoundingBox">
      <stop offset="0" stop-color="#606475"/>
      <stop offset="1" stop-color="#061837"/>
    </linearGradient>
    <linearGradient id="linear-gradient-2" x1="0.755" y1="1.006" x2="0.168" y2="-0.159" xlink:href="#linear-gradient"/>
    <linearGradient id="linear-gradient-3" x1="0.6" y1="0.764" x2="0.012" y2="-0.796" xlink:href="#linear-gradient"/>
    <linearGradient id="linear-gradient-4" x1="0.453" y1="0.325" x2="-0.134" y2="-1.868" xlink:href="#linear-gradient"/>
    <linearGradient id="linear-gradient-5" x1="0.376" y1="0.132" x2="0.621" y2="0.857" gradientUnits="objectBoundingBox">
      <stop offset="0" stop-color="#f7f7fb"/>
      <stop offset="1" stop-color="#e4e7ed"/>
    </linearGradient>
    <linearGradient id="linear-gradient-6" x1="2.692" y1="0.683" x2="-0.338" y2="0.43" xlink:href="#linear-gradient"/>
    <linearGradient id="linear-gradient-7" x1="0" y1="0.5" x2="1" y2="0.5" xlink:href="#linear-gradient"/>
    <linearGradient id="linear-gradient-8" x1="0" y1="0.5" x2="1" y2="0.5" xlink:href="#linear-gradient"/>
    <linearGradient id="linear-gradient-9" y1="0.5" x2="1" y2="0.5" gradientUnits="objectBoundingBox">
      <stop offset="0" stop-color="#fff"/>
      <stop offset="1" stop-color="#e4e7ed"/>
    </linearGradient>
    <linearGradient id="linear-gradient-10" x1="0" y1="0.5" x2="1" y2="0.5" xlink:href="#linear-gradient"/>
    <linearGradient id="linear-gradient-11" x1="0.693" y1="0.002" x2="0.423" y2="1.011" xlink:href="#linear-gradient"/>
    <linearGradient id="linear-gradient-12" x1="0.587" y1="0.051" x2="0.413" y2="0.949" xlink:href="#linear-gradient-9"/>
    <linearGradient id="linear-gradient-13" x1="-0.461" y1="0.381" x2="0.562" y2="0.508" gradientUnits="objectBoundingBox">
      <stop offset="0" stop-color="#9a9fdf"/>
      <stop offset="1" stop-color="#a6aae2"/>
    </linearGradient>
    <linearGradient id="linear-gradient-14" x1="-0.764" y1="0.395" x2="0.581" y2="0.507" xlink:href="#linear-gradient-13"/>
    <linearGradient id="linear-gradient-19" y1="0.5" x2="1" y2="0.5" gradientUnits="objectBoundingBox">
      <stop offset="0" stop-color="#c1c4eb"/>
      <stop offset="1" stop-color="#a0a4e1"/>
    </linearGradient>
    <clipPath id="clip-path">
      <path id="Trazado_165275" data-name="Trazado 165275" d="M175.49,357.641l.057-20.521c-.019,6.745,2.64,13.5,7.983,19.681l-.057,20.521C178.13,371.144,175.471,364.386,175.49,357.641Z" transform="translate(-175.49 -337.12)" fill="none"/>
    </clipPath>
    <linearGradient id="linear-gradient-20" x1="0.757" y1="-0.098" x2="0.016" y2="0.648" gradientUnits="objectBoundingBox">
      <stop offset="0" stop-color="#e6ee74"/>
      <stop offset="1" stop-color="#fff"/>
    </linearGradient>
    <linearGradient id="linear-gradient-21" x1="1.022" y1="0.501" x2="-0.123" y2="0.501" xlink:href="#linear-gradient"/>
    <linearGradient id="linear-gradient-23" x1="1.026" y1="0.508" x2="-0.145" y2="0.479" xlink:href="#linear-gradient"/>
    <linearGradient id="linear-gradient-24" x1="0.508" y1="1.253" x2="0.487" y2="-0.451" gradientUnits="objectBoundingBox">
      <stop offset="0" stop-color="#b5b8c0"/>
      <stop offset="1" stop-color="#e5e6e9"/>
    </linearGradient>
    <linearGradient id="linear-gradient-25" x1="0.707" y1="-0.211" x2="0.463" y2="0.702" gradientUnits="objectBoundingBox">
      <stop offset="0" stop-color="#bebfc6"/>
      <stop offset="1" stop-color="#fff"/>
    </linearGradient>
    <linearGradient id="linear-gradient-26" x1="0" y1="0.5" x2="1" y2="0.5" xlink:href="#linear-gradient"/>
    <linearGradient id="linear-gradient-27" x1="0" y1="0.5" x2="1" y2="0.5" xlink:href="#linear-gradient"/>
    <linearGradient id="linear-gradient-28" x1="0" y1="0.5" x2="1" y2="0.5" xlink:href="#linear-gradient"/>
    <linearGradient id="linear-gradient-29" x1="0" y1="0.499" x2="1.001" y2="0.499" xlink:href="#linear-gradient"/>
    <linearGradient id="linear-gradient-30" x1="0" y1="0.5" x2="1" y2="0.5" xlink:href="#linear-gradient"/>
    <linearGradient id="linear-gradient-31" x1="0" y1="0.5" x2="1" y2="0.5" xlink:href="#linear-gradient"/>
    <linearGradient id="linear-gradient-32" x1="0" y1="0.5" x2="1" y2="0.5" xlink:href="#linear-gradient"/>
    <linearGradient id="linear-gradient-33" x1="0" y1="0.5" x2="1" y2="0.5" xlink:href="#linear-gradient"/>
    <linearGradient id="linear-gradient-34" x1="0" y1="0.5" x2="1" y2="0.5" xlink:href="#linear-gradient"/>
    <linearGradient id="linear-gradient-35" x1="0" y1="0.5" x2="1" y2="0.5" xlink:href="#linear-gradient"/>
    <linearGradient id="linear-gradient-36" x1="0.521" y1="0.078" x2="0.314" y2="0.97" gradientUnits="objectBoundingBox">
      <stop offset="0" stop-color="#bbbee9"/>
      <stop offset="1" stop-color="#fff"/>
    </linearGradient>
  </defs>
  <g id="Grupo_113851" data-name="Grupo 113851" transform="translate(-915 -804)">
    <g id="Rect치ngulo_42055" data-name="Rect치ngulo 42055" transform="translate(1105 1009)" fill="#f85316" stroke="#707070" stroke-width="1">
      <rect width="315" height="104" stroke="none"/>
      <rect x="0.5" y="0.5" width="314" height="103" fill="none"/>
    </g>
    <g id="Capa_1" data-name="Capa 1" transform="translate(915 804)">
      <g id="Grupo_113849" data-name="Grupo 113849">
        <rect id="Rect치ngulo_42054" data-name="Rect치ngulo 42054" width="487.75" height="290.086" fill="#e8e8e8"/>
        <g id="Grupo_113848" data-name="Grupo 113848" transform="translate(23.571 11.16)">
          <g id="Grupo_113811" data-name="Grupo 113811" transform="translate(0 0.189)">
            <g id="Grupo_113804" data-name="Grupo 113804" transform="translate(81.634)">
              <g id="Grupo_113803" data-name="Grupo 113803" transform="translate(0 11.685)">
                <path id="Trazado_165210" data-name="Trazado 165210" d="M188.859,50.03,166.57,36.47v87.04l22.289,13.554Z" transform="translate(-166.57 -36.47)" fill="url(#linear-gradient)"/>
                <path id="Trazado_165211" data-name="Trazado 165211" d="M201.86,51.359,221.717,39.63v87.034L201.86,138.393Z" transform="translate(-179.571 -37.634)" fill="#75b52f"/>
              </g>
              <path id="Trazado_165212" data-name="Trazado 165212" d="M188.859,43.379,166.57,29.655,186.421,17.97l22.3,13.718Z" transform="translate(-166.57 -17.97)" fill="#ced1ef"/>
            </g>
            <g id="Grupo_113806" data-name="Grupo 113806" transform="translate(54.425 39.449)">
              <g id="Grupo_113805" data-name="Grupo 113805" transform="translate(0 11.691)">
                <path id="Trazado_165213" data-name="Trazado 165213" d="M145.779,112.494,123.49,98.94v63.419l22.289,13.56Z" transform="translate(-123.49 -98.94)" fill="url(#linear-gradient-2)"/>
                <path id="Trazado_165214" data-name="Trazado 165214" d="M158.78,113.819l19.851-11.729v63.425L158.78,177.237Z" transform="translate(-136.491 -100.1)" fill="#75b52f"/>
              </g>
              <path id="Trazado_165215" data-name="Trazado 165215" d="M145.779,105.839,123.49,92.121,143.341,80.43,165.63,94.148Z" transform="translate(-123.49 -80.43)" fill="#ced1ef"/>
            </g>
            <g id="Grupo_113808" data-name="Grupo 113808" transform="translate(27.209 74.762)">
              <g id="Grupo_113807" data-name="Grupo 113807" transform="translate(0 11.691)">
                <path id="Trazado_165216" data-name="Trazado 165216" d="M102.689,168.4,80.4,154.85v43.94l22.289,13.56Z" transform="translate(-80.4 -154.85)" fill="url(#linear-gradient-3)"/>
                <path id="Trazado_165217" data-name="Trazado 165217" d="M115.69,169.729,135.547,158v43.946L115.69,213.675Z" transform="translate(-93.401 -156.01)" fill="#75b52f"/>
              </g>
              <path id="Trazado_165218" data-name="Trazado 165218" d="M102.689,161.749,80.4,148.031l19.857-11.691,22.289,13.718Z" transform="translate(-80.4 -136.34)" fill="#ced1ef"/>
            </g>
            <g id="Grupo_113810" data-name="Grupo 113810" transform="translate(0 107.188)">
              <g id="Grupo_113809" data-name="Grupo 113809" transform="translate(0 11.685)">
                <path id="Trazado_165219" data-name="Trazado 165219" d="M59.609,219.74,37.32,206.18v27.361l22.289,13.554Z" transform="translate(-37.32 -206.18)" fill="url(#linear-gradient-4)"/>
                <path id="Trazado_165220" data-name="Trazado 165220" d="M72.61,221.069,92.461,209.34v27.354L72.61,248.423Z" transform="translate(-50.321 -207.344)" fill="#75b52f"/>
              </g>
              <path id="Trazado_165221" data-name="Trazado 165221" d="M59.609,213.089,37.32,199.365,57.171,187.68,79.46,201.4Z" transform="translate(-37.32 -187.68)" fill="#ced1ef"/>
            </g>
          </g>
          <g id="Grupo_113826" data-name="Grupo 113826" transform="translate(286.644)">
            <g id="Grupo_113824" data-name="Grupo 113824">
              <g id="Grupo_113812" data-name="Grupo 113812">
                <path id="Trazado_165222" data-name="Trazado 165222" d="M495.9,125.8,491.16,19.716,495.9,17.67,605.182,82.585V190.715l-4.731,2.04Z" transform="translate(-491.16 -17.67)" fill="#3d46c1" opacity="0.7"/>
                <path id="Trazado_165223" data-name="Trazado 165223" d="M491.16,129.039V20.91L600.451,85.819V193.948Z" transform="translate(-491.16 -18.864)" fill="#3d46c1"/>
                <path id="Trazado_165224" data-name="Trazado 165224" d="M498.43,131.129l100.108,59.458V93.138L498.43,33.68Z" transform="translate(-493.838 -23.568)" fill="url(#linear-gradient-5)"/>
                <path id="Trazado_165225" data-name="Trazado 165225" d="M668.931,120.45l-4.731,2.04V230.619l4.731-2.04Z" transform="translate(-554.909 -55.535)" fill="url(#linear-gradient-6)"/>
                <path id="Trazado_165226" data-name="Trazado 165226" d="M498.43,131.129V33.68l1.4.834v95.939Z" transform="translate(-493.838 -23.568)" fill="url(#linear-gradient-7)"/>
                <path id="Trazado_165227" data-name="Trazado 165227" d="M498.43,187.576l100.108,59.458v-1.851L499.832,186.9Z" transform="translate(-493.838 -80.015)" fill="url(#linear-gradient-8)"/>
              </g>
              <g id="Grupo_113814" data-name="Grupo 113814" transform="translate(71.73 73.625)">
                <g id="Grupo_113813" data-name="Grupo 113813">
                  <path id="Trazado_165228" data-name="Trazado 165228" d="M628.527,162.769a5.044,5.044,0,0,1-1.055.461c2.1-1.718,2.924-4.958,2.476-8.76a24.3,24.3,0,0,0-3.2-9.2c-.246-.429-.505-.846-.771-1.257a22.409,22.409,0,0,0-7.263-7.219c-2.47-1.427-4.945-1.933-7-1.276a5.321,5.321,0,0,1,.764-.531c2.23-1.27,5.148-.865,8.053.821a22.326,22.326,0,0,1,7.225,7.156h0c.278.429.543.865.808,1.314a24.4,24.4,0,0,1,3.2,9.2v.019c.493,4.225-.594,7.762-3.253,9.266Z" transform="translate(-607.305 -134.24)" fill="#7d83d5"/>
                  <path id="Trazado_165229" data-name="Trazado 165229" d="M624.9,163.809a5.341,5.341,0,0,1-.771.524,6.57,6.57,0,0,1-5.009.474,12.218,12.218,0,0,1-3.044-1.282,19.754,19.754,0,0,1-4.756-3.954,26.694,26.694,0,0,1-3.278-4.529c-4.434-7.668-4.409-15.948.051-18.487a5.4,5.4,0,0,1,1.055-.461c2.053-.657,4.529-.152,7,1.276a22.284,22.284,0,0,1,7.263,7.219c.272.4.524.827.771,1.257a24.4,24.4,0,0,1,3.2,9.2c.448,3.8-.385,7.042-2.476,8.76Z" transform="translate(-604.73 -134.819)" fill="#a0a4e1"/>
                  <path id="Trazado_165230" data-name="Trazado 165230" d="M630.761,172.869a6.57,6.57,0,0,1-5.009.474L622.74,158.98l11.268,4.6c.5,4.238-.587,7.781-3.246,9.284Z" transform="translate(-611.365 -143.354)" fill="#dbe636"/>
                </g>
                <path id="Trazado_165231" data-name="Trazado 165231" d="M637.715,174.006a5.044,5.044,0,0,1-1.055.461c2.1-1.718,2.924-4.958,2.476-8.76l1.825-.966c.493,4.225-.594,7.762-3.253,9.266Z" transform="translate(-616.493 -145.477)" fill="#dce73e"/>
                <path id="Trazado_165232" data-name="Trazado 165232" d="M634.008,160.169l-11.268-4.6,7.3-5.855c.272.4.524.827.771,1.257a24.4,24.4,0,0,1,3.2,9.2Z" transform="translate(-611.365 -139.939)" fill="url(#linear-gradient-9)"/>
                <path id="Trazado_165233" data-name="Trazado 165233" d="M640.092,158.591l-1.825.966a24.3,24.3,0,0,0-3.2-9.2c-.246-.429-.505-.846-.771-1.257l1.787-1.048h0c.278.429.543.865.808,1.314a24.4,24.4,0,0,1,3.2,9.2v.019Z" transform="translate(-615.624 -139.328)" fill="#bdc2cd"/>
              </g>
              <g id="Grupo_113817" data-name="Grupo 113817" transform="translate(71.943 112.506)">
                <g id="Grupo_113815" data-name="Grupo 113815" transform="translate(1.402)">
                  <path id="Trazado_165234" data-name="Trazado 165234" d="M609.72,205.135c.038-2.564.916-4.63,2.64-5.615a4.156,4.156,0,0,1,.827-.36,6.947,6.947,0,0,1,5.5,1,17.718,17.718,0,0,1,5.83,5.261l1.4-.916a22.351,22.351,0,0,0-7.219-7.15c-2.47-1.427-4.945-1.933-7-1.276a5.394,5.394,0,0,0-1.055.461c-2.3,1.314-3.417,4.15-3.354,7.642l1.042,1.863,1.4-.916Z" transform="translate(-607.286 -195.8)" fill="#bada97"/>
                  <path id="Trazado_165235" data-name="Trazado 165235" d="M637.055,221.08a24.192,24.192,0,0,0-3.019-8.88l-1.7,1.048a18.909,18.909,0,0,1,2.3,6.846c.354,2.987-.3,5.533-1.945,6.878a4.436,4.436,0,0,1-.606.411,5.159,5.159,0,0,1-3.935.373l-.114-.038-1.4.916,1.585,2.027c.189.063.385.126.575.171a6.57,6.57,0,0,0,5.009-.474,5.334,5.334,0,0,0,.771-.524c2.1-1.718,2.924-4.958,2.476-8.76Z" transform="translate(-614.416 -201.842)" fill="url(#linear-gradient-10)"/>
                  <path id="Trazado_165236" data-name="Trazado 165236" d="M619.036,227.023c-.1-.057-.2-.107-.3-.164a15.616,15.616,0,0,1-3.739-3.107,21.227,21.227,0,0,1-2.577-3.556,19.475,19.475,0,0,1-2.451-6.79l-2.406-.916a24.535,24.535,0,0,0,3.126,8.691,26.356,26.356,0,0,0,3.278,4.529,20,20,0,0,0,4.756,3.954c.158.095.316.171.474.259l-.164-2.9Z" transform="translate(-607.387 -201.949)" fill="#bdc2cd"/>
                </g>
                <g id="Grupo_113816" data-name="Grupo 113816" transform="translate(0 0.916)">
                  <path id="Trazado_165237" data-name="Trazado 165237" d="M607.506,206.585c.038-2.564.916-4.63,2.64-5.615a4.157,4.157,0,0,1,.827-.36,6.947,6.947,0,0,1,5.5,1A17.349,17.349,0,0,1,621.983,207l1.712-1.042a22.352,22.352,0,0,0-7.219-7.15c-2.47-1.427-4.945-1.933-7-1.276a5.394,5.394,0,0,0-1.055.461c-2.3,1.314-3.417,4.15-3.354,7.642Z" transform="translate(-605.066 -197.25)" fill="#bada97"/>
                  <path id="Trazado_165238" data-name="Trazado 165238" d="M635.649,222.53a24.191,24.191,0,0,0-3.019-8.88l-1.7,1.048a18.908,18.908,0,0,1,2.3,6.846c.354,2.987-.3,5.533-1.945,6.878a4.44,4.44,0,0,1-.606.411,5.159,5.159,0,0,1-3.935.373l-.114-.038.189,2.943c.189.063.385.12.575.171a6.57,6.57,0,0,0,5.009-.474,5.342,5.342,0,0,0,.771-.524c2.1-1.718,2.924-4.958,2.476-8.76Z" transform="translate(-613.01 -203.292)" fill="url(#linear-gradient-11)"/>
                  <path id="Trazado_165239" data-name="Trazado 165239" d="M616.826,228.473c-.1-.057-.2-.107-.3-.164a15.616,15.616,0,0,1-3.739-3.107,21.231,21.231,0,0,1-2.577-3.556,19.477,19.477,0,0,1-2.451-6.79l-2.406-.916a24.537,24.537,0,0,0,3.126,8.691,26.357,26.357,0,0,0,3.278,4.529,20,20,0,0,0,4.756,3.954c.158.095.316.171.474.259l-.164-2.9Z" transform="translate(-605.171 -203.399)" fill="url(#linear-gradient-12)"/>
                </g>
                <path id="Trazado_165240" data-name="Trazado 165240" d="M624.916,235.5l-1.4.916.158,2.9,1.4-.916Z" transform="translate(-611.865 -210.426)" fill="#9da3ac"/>
                <path id="Trazado_165241" data-name="Trazado 165241" d="M606.746,212.49l-1.4.916,2.406.916,1.4-.916Z" transform="translate(-605.171 -201.949)" fill="#9da3ac"/>
              </g>
              <g id="Grupo_113822" data-name="Grupo 113822" transform="translate(21.31 45.854)">
                <g id="Grupo_113818" data-name="Grupo 113818" transform="translate(0 1.143)">
                  <path id="Trazado_165242" data-name="Trazado 165242" d="M527.52,104.5l5.646,3.4V95.491L527.52,92.08Z" transform="translate(-525.865 -92.08)" fill="#75b52f"/>
                  <path id="Trazado_165243" data-name="Trazado 165243" d="M524.9,106.081l5.646,3.4V97.074l-5.646-3.4Z" transform="translate(-524.9 -92.666)" fill="#75b52f"/>
                  <path id="Trazado_165244" data-name="Trazado 165244" d="M535.495,97.48l-1.655,1v12.411l1.655-1Z" transform="translate(-528.194 -94.069)" fill="#75b52f"/>
                  <path id="Trazado_165245" data-name="Trazado 165245" d="M524.9,93.084l1.655-1,5.646,3.411-1.655,1Z" transform="translate(-524.9 -92.08)" fill="#75b52f"/>
                </g>
                <g id="Grupo_113819" data-name="Grupo 113819" transform="translate(9.43 0.632)">
                  <path id="Trazado_165246" data-name="Trazado 165246" d="M542.45,109.732l5.653,3.4V94.674l-5.653-3.4Z" transform="translate(-540.795 -91.27)" fill="url(#linear-gradient-13)"/>
                  <path id="Trazado_165247" data-name="Trazado 165247" d="M539.83,111.312l5.653,3.4V96.261L539.83,92.85Z" transform="translate(-539.83 -91.852)" fill="#e6ee74"/>
                  <path id="Trazado_165248" data-name="Trazado 165248" d="M550.435,96.66l-1.655,1v18.455l1.655-1Z" transform="translate(-543.127 -93.256)" fill="#dce73e"/>
                  <path id="Trazado_165249" data-name="Trazado 165249" d="M539.83,92.268l1.655-1,5.653,3.4-1.655,1Z" transform="translate(-539.83 -91.27)" fill="#f3f6bb"/>
                </g>
                <g id="Grupo_113820" data-name="Grupo 113820" transform="translate(18.866)">
                  <path id="Trazado_165250" data-name="Trazado 165250" d="M557.39,114.9l5.653,3.4V93.674l-5.653-3.4Z" transform="translate(-555.735 -90.27)" fill="#75b52f"/>
                  <path id="Trazado_165251" data-name="Trazado 165251" d="M554.77,116.48l5.653,3.411V95.264l-5.653-3.4Z" transform="translate(-554.77 -90.856)" fill="#75b52f"/>
                  <path id="Trazado_165252" data-name="Trazado 165252" d="M565.375,95.66l-1.655,1V121.29l1.655-1Z" transform="translate(-558.067 -92.256)" fill="#75b52f"/>
                  <path id="Trazado_165253" data-name="Trazado 165253" d="M554.77,91.274l1.655-1,5.653,3.4-1.655,1Z" transform="translate(-554.77 -90.27)" fill="#75b52f"/>
                </g>
                <g id="Grupo_113821" data-name="Grupo 113821" transform="translate(28.302 1.143)">
                  <path id="Trazado_165254" data-name="Trazado 165254" d="M572.33,121.1l5.646,3.4V95.491L572.33,92.08Z" transform="translate(-570.675 -92.08)" fill="url(#linear-gradient-14)"/>
                  <path id="Trazado_165255" data-name="Trazado 165255" d="M569.71,122.679l5.646,3.411V97.074l-5.646-3.4Z" transform="translate(-569.71 -92.666)" fill="#e6ee74"/>
                  <path id="Trazado_165256" data-name="Trazado 165256" d="M580.3,97.48l-1.655,1v29.016l1.655-1Z" transform="translate(-573.004 -94.069)" fill="#dce73e"/>
                  <path id="Trazado_165257" data-name="Trazado 165257" d="M569.71,93.084l1.655-1,5.646,3.411-1.655,1Z" transform="translate(-569.71 -92.08)" fill="#f3f6bb"/>
                </g>
              </g>
              <g id="Grupo_113823" data-name="Grupo 113823" transform="translate(13.188 74.434)">
                <path id="Trazado_165258" data-name="Trazado 165258" d="M537.8,151.974,513.24,138.1a2.469,2.469,0,0,1-1.2-1.876h0c0-.657.537-.9,1.2-.524L537.8,149.574a2.469,2.469,0,0,1,1.2,1.876h0C539,152.106,538.466,152.346,537.8,151.974Z" transform="translate(-512.04 -135.521)" fill="#a0a4e1"/>
                <path id="Trazado_165259" data-name="Trazado 165259" d="M558.386,172.735l-45.146-25.5a2.469,2.469,0,0,1-1.2-1.876h0c0-.657.537-.9,1.2-.524l45.146,25.5a2.469,2.469,0,0,1,1.2,1.876h0C559.587,172.868,559.05,173.108,558.386,172.735Z" transform="translate(-512.04 -138.889)" fill="#bbbcc0"/>
                <path id="Trazado_165260" data-name="Trazado 165260" d="M558.386,181.875l-45.146-25.5a2.469,2.469,0,0,1-1.2-1.876h0c0-.657.537-.9,1.2-.524l45.146,25.5a2.469,2.469,0,0,1,1.2,1.876h0C559.587,182.008,559.05,182.248,558.386,181.875Z" transform="translate(-512.04 -142.256)" fill="#bbbcc0"/>
                <path id="Trazado_165261" data-name="Trazado 165261" d="M558.386,191l-45.146-25.5a2.469,2.469,0,0,1-1.2-1.876h0c0-.657.537-.9,1.2-.524l45.146,25.5a2.469,2.469,0,0,1,1.2,1.876h0C559.587,191.138,559.05,191.378,558.386,191Z" transform="translate(-512.04 -145.619)" fill="#bbbcc0"/>
                <path id="Trazado_165262" data-name="Trazado 165262" d="M537.8,188.514,513.24,174.637a2.469,2.469,0,0,1-1.2-1.876h0c0-.657.537-.9,1.2-.524L537.8,186.114a2.469,2.469,0,0,1,1.2,1.876h0C539,188.646,538.466,188.886,537.8,188.514Z" transform="translate(-512.04 -148.983)" fill="#bbbcc0"/>
              </g>
            </g>
            <g id="Grupo_113825" data-name="Grupo 113825" transform="translate(28.775 135.623)">
              <path id="Trazado_165263" data-name="Trazado 165263" d="M574.991,276.574V241.969l-4.611-2.849v34.611Z" transform="translate(-549.12 -234.876)" fill="#3d46c1"/>
              <path id="Trazado_165264" data-name="Trazado 165264" d="M580.693,245.335v31.15l-3.013,1.75V243.63Z" transform="translate(-551.81 -236.537)" fill="url(#linear-gradient-8)"/>
              <path id="Trazado_165265" data-name="Trazado 165265" d="M589.39,250.45l7.4,38.837,4.08,2.918-7.623-39.468Z" transform="translate(-556.124 -239.05)" fill="#3d46c1"/>
              <path id="Trazado_165266" data-name="Trazado 165266" d="M595.49,254.07l7.623,39.468,2.482-1.554-6.84-35.976Z" transform="translate(-558.371 -240.383)" fill="url(#linear-gradient-8)"/>
              <path id="Trazado_165267" data-name="Trazado 165267" d="M555.055,234.933l-13.63,26.9-4.705-2.488L550.792,232.4Z" transform="translate(-536.72 -232.4)" fill="#3d46c1"/>
              <path id="Trazado_165268" data-name="Trazado 165268" d="M544.17,263.31l13.63-26.9,1.674.992-13.017,25.213Z" transform="translate(-539.465 -233.877)" fill="url(#linear-gradient-8)"/>
            </g>
          </g>
          <g id="Grupo_113833" data-name="Grupo 113833" transform="translate(87.268 152.126)">
            <g id="Grupo_113827" data-name="Grupo 113827" transform="translate(29.704)">
              <path id="Trazado_165269" data-name="Trazado 165269" d="M274.822,309.1l-.057,20.521-52.246-31.63.063-20.521Z" transform="translate(-222.52 -265.508)" fill="url(#linear-gradient-8)"/>
              <path id="Trazado_165270" data-name="Trazado 165270" d="M269.289,258.53l5.571,43.593-52.239-31.63c13.137-7.289,29.736-11.274,46.675-11.962Z" transform="translate(-222.557 -258.53)" fill="url(#linear-gradient-19)"/>
            </g>
            <g id="Grupo_113831" data-name="Grupo 113831" transform="translate(0 18.222)">
              <path id="Trazado_165271" data-name="Trazado 165271" d="M183.53,357.491c-5.343-6.177-8-12.935-7.983-19.681l-.057,20.521c-.019,6.745,2.64,13.5,7.983,19.681Z" transform="translate(-175.49 -305.959)" fill="#3d46c1"/>
              <path id="Trazado_165272" data-name="Trazado 165272" d="M255.648,338.15l-.057,20.527L188.13,378.143l.057-20.527Z" transform="translate(-180.147 -306.084)" fill="#3d46c1"/>
              <path id="Trazado_165273" data-name="Trazado 165273" d="M198.781,287.38l52.239,31.63-67.467,19.466c-14.135-16.352-9.506-36.74,13.939-50.37.423-.246.846-.486,1.282-.726Z" transform="translate(-175.52 -287.38)" fill="#e6ee74"/>
              <g id="Grupo_113830" data-name="Grupo 113830" transform="translate(0 31.416)">
                <g id="Grupo_113829" data-name="Grupo 113829" clip-path="url(#clip-path)">
                  <g id="Grupo_113828" data-name="Grupo 113828">
                    <path id="Trazado_165274" data-name="Trazado 165274" d="M183.53,356.8c-5.343-6.177-8-12.935-7.983-19.681l-.057,20.521c-.019,6.745,2.64,13.5,7.983,19.681Z" transform="translate(-175.49 -337.12)" fill="#e6ee74"/>
                  </g>
                </g>
              </g>
              <path id="Trazado_165276" data-name="Trazado 165276" d="M255.648,337.46l-.057,20.521L188.13,377.446l.057-20.521Z" transform="translate(-180.147 -305.83)" fill="#dce73e"/>
              <path id="Trazado_165277" data-name="Trazado 165277" d="M183.776,351.27c-7.333-8.482-9.6-18.045-6.834-27.19-3.114,9.36-.91,19.207,6.613,27.917l67.467-19.466-.739-.448L183.776,351.27Z" transform="translate(-175.521 -300.9)" fill="url(#linear-gradient-20)"/>
            </g>
            <g id="Grupo_113832" data-name="Grupo 113832" transform="translate(20.142 11.318)">
              <path id="Trazado_165278" data-name="Trazado 165278" d="M350.3,348.635c-.006.189-.019.379-.032.568-.013.164-.019.328-.032.493-.013.189-.032.385-.051.575-.019.164-.032.328-.051.493-.025.189-.051.385-.076.575-.025.164-.044.322-.069.486-.032.2-.069.392-.107.581-.032.158-.057.316-.088.474-.038.189-.082.385-.126.575-.038.158-.069.316-.107.474-.051.2-.1.392-.152.581-.044.158-.082.309-.126.467-.057.2-.12.4-.183.594-.044.152-.095.3-.139.448-.069.208-.145.411-.215.613-.051.139-.1.284-.152.423-.114.3-.234.594-.354.9a1.645,1.645,0,0,1-.063.158c-.145.347-.3.7-.467,1.048-.051.107-.1.208-.152.316-.114.24-.234.486-.36.726-.069.133-.145.265-.215.4-.114.215-.227.423-.341.632-.069.12-.145.246-.215.366-.139.24-.278.474-.423.714-.082.139-.171.278-.259.417-.139.221-.278.442-.423.657-.095.145-.189.284-.284.423q-.218.322-.455.644l-.3.417c-.164.221-.335.442-.505.663-.095.126-.189.253-.291.379-.3.385-.619.771-.947,1.15-.057.063-.114.126-.164.189-.278.322-.562.638-.859.96-.107.114-.215.234-.328.347-.265.284-.543.568-.821.853-.095.1-.2.2-.291.3-.373.373-.758.739-1.15,1.1-.145.133-.3.265-.442.4l-.568.512c-.158.139-.322.272-.48.411-.2.164-.385.335-.587.5-.164.139-.341.278-.512.411-.2.158-.4.322-.6.48-.177.139-.36.278-.543.417-.2.158-.4.309-.613.467-.183.139-.373.272-.562.411-.208.152-.417.3-.632.461-.2.139-.392.272-.587.4-.215.152-.436.3-.657.448l-.606.4c-.227.145-.448.3-.676.442-.208.133-.417.259-.625.392l-.7.436c-.373.227-.745.448-1.124.669-.815.474-1.655.928-2.495,1.377-.221.12-.448.234-.669.354-.758.392-1.529.777-2.305,1.15-.1.051-.2.1-.309.152q-1.307.616-2.653,1.194c-.227.1-.461.2-.695.291-.764.322-1.535.632-2.312.935-.171.063-.335.133-.505.2-.922.354-1.851.688-2.792,1.011l-.682.227c-.638.215-1.276.417-1.92.625-.606.189-1.219.379-1.832.556-.518.152-1.042.3-1.566.448-.625.171-1.251.341-1.876.5-.531.139-1.055.272-1.585.4-.638.152-1.276.3-1.92.442-.531.12-1.067.24-1.6.347-.657.139-1.314.265-1.971.385-.587.114-1.175.227-1.762.328l-.8.133c-.9.152-1.813.3-2.722.423-.152.019-.3.044-.455.069-1.036.145-2.084.278-3.126.4-.259.032-.524.057-.783.088-1,.107-2.008.208-3.019.3a.7.7,0,0,0-.114.013q-1.62.133-3.24.227c-.183.013-.366.025-.549.032-.985.051-1.964.095-2.95.12-.733.025-1.465.032-2.2.044-.512.006-1.029.019-1.541.019-.783,0-1.566-.013-2.35-.025-.467-.006-.935-.006-1.4-.019-.72-.019-1.434-.051-2.154-.082-.505-.019-1.011-.038-1.516-.063-.771-.044-1.541-.1-2.305-.158-.448-.032-.9-.057-1.345-.095-.928-.076-1.851-.171-2.773-.272-.284-.032-.575-.051-.859-.082q-1.81-.2-3.606-.455c-.183-.025-.366-.057-.549-.088-1.036-.152-2.072-.309-3.1-.486-.423-.076-.846-.158-1.263-.234-.783-.145-1.56-.284-2.337-.442-.966-.2-1.933-.411-2.886-.632l-.575-.133c-.992-.234-1.983-.48-2.962-.745-.126-.032-.259-.069-.385-.107-.865-.234-1.718-.48-2.571-.733-.24-.069-.486-.145-.726-.215-.966-.3-1.933-.606-2.88-.928-.183-.063-.366-.126-.543-.189-.789-.272-1.573-.556-2.343-.846-.265-.1-.524-.2-.79-.3-.619-.24-1.225-.486-1.832-.739-.417-.171-.84-.341-1.251-.518-.594-.253-1.175-.518-1.756-.783-.379-.177-.771-.341-1.143-.524-.638-.3-1.257-.619-1.882-.935-.309-.158-.625-.309-.935-.467-.922-.48-1.832-.979-2.716-1.491a55.229,55.229,0,0,1-14.287-11.438l-.057,20.521a55.336,55.336,0,0,0,14.287,11.438c.891.512,1.8,1.011,2.716,1.491.309.158.625.309.935.467.619.316,1.244.632,1.876.928.379.177.764.347,1.15.524.581.265,1.162.531,1.75.783.417.177.834.347,1.251.518s.8.341,1.2.5c.208.082.417.158.625.24.259.1.524.2.79.3.777.291,1.554.575,2.343.846.183.063.36.133.549.189q1.431.483,2.88.928c.24.076.486.145.726.215.417.126.827.253,1.251.373s.878.24,1.32.36c.133.038.259.069.385.107.979.259,1.971.505,2.962.745l.575.133c.872.2,1.75.4,2.627.581.088.019.171.032.259.051.777.158,1.554.3,2.337.442.423.076.84.164,1.263.234,1.03.177,2.065.335,3.1.486.177.025.347.057.524.082h.025c1.194.171,2.4.322,3.606.455.284.032.575.057.859.082.922.095,1.844.189,2.773.272a.307.307,0,0,1,.076.006c.423.038.853.057,1.276.088.771.057,1.535.114,2.312.158.505.025,1.011.044,1.516.063.714.032,1.434.063,2.154.082a1.654,1.654,0,0,1,.177.006c.4.013.815,0,1.219.013.783.013,1.566.025,2.35.025.518,0,1.029-.013,1.541-.019.733-.013,1.465-.019,2.2-.044.139,0,.272,0,.411-.006.846-.032,1.7-.069,2.545-.114.183-.013.366-.019.549-.032,1.08-.063,2.16-.133,3.24-.227a.7.7,0,0,0,.114-.013c.644-.057,1.282-.114,1.92-.177.366-.038.726-.082,1.093-.12.259-.025.524-.057.783-.088q1.573-.18,3.126-.4c.152-.019.3-.044.455-.069.91-.133,1.819-.272,2.722-.423l.8-.133c.215-.038.43-.069.638-.107.379-.069.745-.152,1.124-.221.657-.126,1.32-.253,1.971-.385.537-.114,1.067-.234,1.6-.347.644-.145,1.282-.291,1.92-.442.531-.126,1.061-.265,1.585-.4.632-.164,1.257-.328,1.876-.5.524-.145,1.042-.3,1.566-.448.613-.183,1.225-.366,1.832-.556.265-.082.537-.158.8-.246.373-.12.745-.253,1.118-.379l.682-.227c.941-.322,1.87-.663,2.792-1.011.171-.063.335-.133.505-.2.777-.3,1.547-.613,2.312-.935.234-.095.461-.2.695-.291q1.345-.578,2.653-1.194c.1-.051.2-.1.31-.152.777-.373,1.547-.758,2.305-1.15.227-.114.448-.234.669-.354.846-.448,1.68-.9,2.495-1.377.309-.183.619-.36.922-.543.069-.044.139-.088.208-.126l.7-.436c.208-.133.423-.259.625-.392.227-.145.455-.3.682-.442l.606-.4.657-.448c.2-.133.392-.272.587-.4.215-.152.423-.3.632-.455.189-.139.379-.272.562-.411l.619-.467c.177-.139.36-.272.537-.411.2-.158.4-.322.6-.48.171-.139.341-.272.505-.411.2-.164.392-.328.581-.493.158-.139.322-.272.48-.411.189-.171.379-.335.562-.505.133-.12.272-.24.4-.36a.292.292,0,0,0,.044-.044c.392-.366.777-.733,1.15-1.1.1-.1.2-.2.291-.3.278-.284.556-.562.821-.853l.328-.347c.291-.316.581-.638.859-.96.057-.063.114-.126.164-.189.328-.379.638-.764.947-1.15l.076-.095c.076-.095.139-.189.215-.284.171-.221.335-.442.5-.663.1-.139.2-.278.3-.423l.455-.644c.095-.145.2-.284.291-.429.145-.221.284-.436.423-.657.088-.139.177-.278.259-.417.145-.24.284-.474.423-.714l.171-.284c.013-.025.032-.057.044-.082.12-.208.227-.423.341-.632.069-.133.145-.265.215-.4.126-.24.24-.48.354-.726.051-.107.107-.208.152-.316.164-.347.316-.695.467-1.048a1.645,1.645,0,0,0,.063-.158c.126-.3.246-.594.354-.9,0-.013.013-.025.013-.038.051-.126.088-.259.139-.392.076-.2.152-.411.215-.613.051-.152.095-.3.139-.448.063-.2.126-.4.183-.594.044-.158.082-.309.126-.467.051-.2.107-.385.152-.581.038-.158.076-.316.107-.474.044-.189.088-.385.126-.575a.59.59,0,0,1,.025-.1c.025-.126.044-.253.069-.379.038-.2.069-.385.1-.581.025-.164.051-.322.069-.486.025-.189.057-.385.076-.575.019-.164.038-.328.051-.493.019-.189.038-.385.051-.575.013-.164.019-.328.032-.493.013-.189.019-.379.032-.568,0-.063.006-.12.006-.183.006-.221.013-.442.013-.663l.057-20.521c0,.284-.013.562-.019.846Z" transform="translate(-207.38 -302.725)" fill="url(#linear-gradient-21)"/>
              <path id="Trazado_165279" data-name="Trazado 165279" d="M310.958,320.043l-5.571-43.593-.057,20.527L310.9,340.57Z" transform="translate(-243.465 -276.45)" fill="url(#linear-gradient-7)"/>
              <path id="Trazado_165280" data-name="Trazado 165280" d="M350.3,346.649c-.006.189-.019.379-.032.568-.013.164-.019.328-.032.493-.013.189-.032.385-.051.575-.019.164-.032.328-.051.493-.025.189-.051.385-.076.575-.025.164-.044.322-.069.486-.032.2-.069.392-.107.581-.032.158-.057.316-.088.474-.038.189-.082.385-.126.575-.038.158-.069.316-.107.474-.051.2-.1.392-.152.581-.044.158-.082.309-.126.467-.057.2-.12.4-.183.594-.044.152-.095.3-.139.448-.069.208-.145.411-.215.613-.051.139-.1.284-.152.423-.114.3-.234.594-.354.9a1.648,1.648,0,0,1-.063.158c-.145.347-.3.7-.467,1.048-.051.107-.1.208-.152.316-.114.24-.234.486-.36.726-.069.133-.145.265-.215.4-.114.215-.227.423-.341.632-.069.12-.145.246-.215.366-.139.24-.278.474-.423.714-.082.139-.171.278-.259.417-.139.221-.278.442-.423.657-.095.145-.189.284-.284.423q-.218.322-.455.644l-.3.417c-.164.221-.335.442-.505.663-.095.126-.189.253-.291.379-.3.385-.619.771-.947,1.15-.057.063-.114.126-.164.189-.278.322-.562.638-.859.96-.107.114-.215.234-.328.347-.265.284-.543.568-.821.853-.095.1-.2.2-.291.3-.373.373-.758.739-1.15,1.1-.145.133-.3.265-.442.4l-.568.512c-.158.139-.322.272-.48.411-.2.164-.385.335-.587.5-.164.139-.341.278-.512.411-.2.158-.4.322-.6.48-.177.139-.36.278-.543.417-.2.158-.4.309-.613.467-.183.139-.373.272-.562.411-.208.152-.417.3-.632.461-.2.139-.392.272-.587.4-.215.152-.436.3-.657.448l-.606.4c-.227.145-.448.3-.676.442-.208.133-.417.259-.625.392l-.7.436c-.373.227-.745.448-1.124.669-.815.474-1.655.928-2.495,1.377-.221.12-.448.234-.669.354-.758.392-1.529.777-2.305,1.15-.1.051-.2.1-.309.152q-1.307.616-2.653,1.194c-.227.1-.461.2-.695.291-.764.322-1.535.632-2.312.935-.171.063-.335.133-.505.2-.922.354-1.851.688-2.792,1.011l-.682.227c-.638.215-1.276.417-1.92.625-.606.189-1.219.379-1.832.556-.518.152-1.042.3-1.566.448-.625.171-1.251.341-1.876.5-.531.139-1.055.272-1.585.4-.638.152-1.276.3-1.92.442-.531.12-1.067.24-1.6.347-.657.139-1.314.265-1.971.385-.587.114-1.175.227-1.762.328l-.8.133c-.9.152-1.813.3-2.722.423-.152.019-.3.044-.455.069-1.036.145-2.084.278-3.126.4-.259.032-.524.057-.783.088-1,.107-2.008.208-3.019.3a.7.7,0,0,0-.114.013q-1.62.133-3.24.227c-.183.013-.366.025-.549.032-.985.051-1.964.095-2.95.12-.733.025-1.465.032-2.2.044-.512.006-1.029.019-1.541.019-.783,0-1.566-.013-2.35-.025-.467-.006-.935-.006-1.4-.019-.72-.019-1.434-.051-2.154-.082-.505-.019-1.011-.038-1.516-.063-.771-.044-1.541-.1-2.305-.158-.448-.032-.9-.057-1.345-.095-.928-.076-1.851-.171-2.773-.272-.284-.032-.575-.051-.859-.082q-1.81-.2-3.606-.455c-.183-.025-.366-.057-.549-.088-1.036-.152-2.072-.309-3.1-.486-.423-.076-.846-.158-1.263-.234-.783-.145-1.56-.284-2.337-.442-.966-.2-1.933-.411-2.886-.632l-.575-.133c-.992-.234-1.983-.48-2.962-.745-.126-.032-.259-.069-.385-.107-.865-.234-1.718-.48-2.571-.733-.24-.069-.486-.145-.726-.215-.966-.3-1.933-.606-2.88-.928-.183-.063-.366-.126-.543-.189-.789-.272-1.573-.556-2.343-.846-.265-.1-.524-.2-.79-.3-.619-.24-1.225-.486-1.832-.739-.417-.171-.84-.341-1.251-.518-.594-.253-1.175-.518-1.756-.783-.379-.177-.771-.341-1.143-.524-.638-.3-1.257-.619-1.882-.935-.309-.158-.625-.309-.935-.467-.922-.48-1.832-.979-2.716-1.491a55.229,55.229,0,0,1-14.287-11.438l-.057,20.521a55.336,55.336,0,0,0,14.287,11.438c.891.512,1.8,1.011,2.716,1.491.309.158.625.309.935.467.619.316,1.244.632,1.876.928.379.177.764.347,1.15.524.581.265,1.162.531,1.75.783.417.177.834.347,1.251.518s.8.341,1.2.5c.208.082.417.158.625.24.259.1.524.2.79.3.777.291,1.554.575,2.343.846.183.063.36.133.549.189q1.431.483,2.88.928c.24.076.486.145.726.215.417.126.827.253,1.251.373s.878.24,1.32.36c.133.038.259.069.385.107.979.259,1.971.505,2.962.745l.575.133c.872.2,1.75.4,2.627.581.088.019.171.032.259.051.777.158,1.554.3,2.337.442.423.076.84.164,1.263.234,1.03.177,2.065.335,3.1.486.177.025.347.057.524.082h.025c1.194.171,2.4.322,3.606.455.284.032.575.057.859.082.922.095,1.844.189,2.773.272a.307.307,0,0,1,.076.006c.423.038.853.057,1.276.088.771.057,1.535.114,2.312.158.505.025,1.011.044,1.516.063.714.032,1.434.063,2.154.082a1.646,1.646,0,0,1,.177.006c.4.013.815,0,1.219.013.783.013,1.566.025,2.35.025.518,0,1.029-.013,1.541-.019.733-.013,1.465-.019,2.2-.044.139,0,.272,0,.411-.006.846-.032,1.7-.069,2.545-.114.183-.013.366-.019.549-.032,1.08-.063,2.16-.133,3.24-.227a.7.7,0,0,0,.114-.013c.644-.057,1.282-.114,1.92-.177.366-.038.726-.082,1.093-.12.259-.025.524-.057.783-.088q1.573-.18,3.126-.4c.152-.019.3-.044.455-.069.91-.133,1.819-.272,2.722-.423l.8-.133c.215-.038.43-.069.638-.107.379-.069.745-.152,1.124-.221.657-.126,1.32-.253,1.971-.385.537-.114,1.067-.234,1.6-.347.644-.145,1.282-.291,1.92-.442.531-.126,1.061-.265,1.585-.4.632-.164,1.257-.328,1.876-.5.524-.145,1.042-.3,1.566-.448.613-.183,1.225-.366,1.832-.556.265-.082.537-.158.8-.246.373-.12.745-.253,1.118-.379l.682-.227c.941-.322,1.87-.663,2.792-1.011.171-.063.335-.133.505-.2.777-.3,1.547-.613,2.312-.935.234-.095.461-.2.695-.291q1.345-.578,2.653-1.194c.1-.051.2-.1.31-.152.777-.373,1.547-.758,2.305-1.15.227-.114.448-.234.669-.354.846-.448,1.68-.9,2.495-1.377.309-.183.619-.36.922-.543.069-.044.139-.088.208-.126.234-.145.467-.291.7-.429.208-.133.423-.259.625-.392.227-.145.455-.3.682-.442l.606-.4.657-.448c.2-.133.392-.272.587-.4.215-.152.423-.3.632-.455.189-.139.379-.272.562-.411l.619-.467c.177-.139.36-.272.537-.411.2-.158.4-.322.6-.48.171-.139.341-.272.505-.411.2-.164.392-.328.581-.493.158-.139.322-.272.48-.411.189-.171.379-.335.562-.505.133-.12.272-.24.4-.36a.292.292,0,0,0,.044-.044c.392-.366.777-.733,1.15-1.1.1-.1.2-.2.291-.3.278-.284.556-.562.821-.853l.328-.347c.291-.316.581-.638.859-.96.057-.063.114-.126.164-.189.328-.379.638-.764.947-1.15l.076-.095c.076-.095.139-.189.215-.284.171-.221.335-.442.5-.663.1-.139.2-.278.3-.423l.455-.644c.095-.145.2-.284.291-.429.145-.221.284-.436.423-.657.088-.139.177-.278.259-.417.145-.24.284-.474.423-.714l.171-.284c.013-.025.032-.057.044-.082.12-.208.227-.423.341-.632.069-.133.145-.265.215-.4.126-.24.24-.48.354-.726.051-.107.107-.208.152-.316.164-.347.316-.695.467-1.048a1.641,1.641,0,0,0,.063-.158c.126-.3.246-.594.354-.9,0-.013.013-.025.013-.038.051-.126.088-.259.139-.392.076-.2.152-.411.215-.613.051-.152.095-.3.139-.448.063-.2.126-.4.183-.594.044-.158.082-.309.126-.467.051-.2.107-.385.152-.581.038-.158.076-.316.107-.474.044-.189.088-.385.126-.575a.592.592,0,0,1,.025-.1c.025-.126.044-.253.069-.379.038-.2.069-.385.1-.581.025-.164.051-.322.069-.486.025-.189.057-.385.076-.575.019-.164.038-.328.051-.493.019-.189.038-.385.051-.575.013-.164.019-.328.032-.493.013-.189.019-.379.032-.568,0-.063.006-.12.006-.183.006-.221.013-.442.013-.663l.057-20.521c0,.284-.013.562-.019.846Z" transform="translate(-207.38 -301.995)" fill="url(#linear-gradient-23)"/>
            </g>
            <path id="Trazado_165281" data-name="Trazado 165281" d="M328.071,289.075c29.559,17.066,29.717,44.742.347,61.808s-77.137,17.066-106.7,0a55.228,55.228,0,0,1-14.287-11.438L274.9,319.979l-5.571-43.593C290.365,275.528,311.934,279.759,328.071,289.075Z" transform="translate(-187.257 -265.068)" fill="url(#linear-gradient-24)"/>
            <path id="Trazado_165282" data-name="Trazado 165282" d="M340.55,309.37c16.908,16.731,13.074,38.54-11.59,52.871-29.369,17.066-77.137,17.066-106.7,0a60.086,60.086,0,0,1-11.009-8.04,58.35,58.35,0,0,0,11.868,8.874c29.559,17.066,77.333,17.072,106.7,0C354.894,348.5,358.443,326.2,340.55,309.37Z" transform="translate(-188.664 -277.26)" fill="url(#linear-gradient-25)"/>
          </g>
          <g id="Grupo_113835" data-name="Grupo 113835" transform="translate(223.219 40.965)">
            <path id="Trazado_165283" data-name="Trazado 165283" d="M423.846,242s-1.124,3.663-.436,4.825,2.571,1.345,5.729,3.834,4.326,2.912,6.013,2.425,2.722-1.093.9-4.124a32.429,32.429,0,0,0-5.432-6.2Z" transform="translate(-402.694 -141.279)" fill="url(#linear-gradient-26)"/>
            <path id="Trazado_165284" data-name="Trazado 165284" d="M428.578,169.93s1.705,18.771,1.472,23.079-1.112,6.72-1.472,11.546a105.548,105.548,0,0,0,0,11.268s.442,1.39-2.432,1.2a8.592,8.592,0,0,1-4.787-1.907s-.884-9.7,0-14.836.771-6.284.771-6.284L417.62,173.1l10.958-3.164Z" transform="translate(-400.643 -114.728)" fill="url(#linear-gradient-27)"/>
            <path id="Trazado_165285" data-name="Trazado 165285" d="M400.9,175.54s-1.358,3.916,0,7.156a34.032,34.032,0,0,0,2.053,4.339l.808,13.118a37.323,37.323,0,0,0-.928,10.074c.347,4.977.347,11.217.347,11.217s.234,1.566,3.935,1.421,4.282-1.3,4.282-1.3-.234-13.3,1.5-20.476,2.084-27.658,2.084-27.658L400.9,175.54Z" transform="translate(-394.26 -116.018)" fill="url(#linear-gradient-28)"/>
            <path id="Trazado_165286" data-name="Trazado 165286" d="M427.9,107.14s1.547.771,3.057,5.375,2.608,12.916,3.3,14.154,8.931,9.967,8.931,9.967a3.227,3.227,0,0,0-2.735,1.3,7.063,7.063,0,0,0-1.6,2.754s-8.11-4.743-9.348-9.619-1.617-23.931-1.617-23.931Z" transform="translate(-404.427 -91.596)" fill="#e6ee74"/>
            <path id="Trazado_165287" data-name="Trazado 165287" d="M415.4,107.032c-3.328-1.585-19.068,7.465-20.937,10.668s1.952,16.883,3.43,22.965a26.734,26.734,0,0,1,.663,10.346s4.446,4.667,13.1,2.128,8.539-8.148,8.539-8.148-2.223-36.734-4.794-37.959Z" transform="translate(-391.927 -91.488)" fill="#dbe636"/>
            <path id="Trazado_165288" data-name="Trazado 165288" d="M394.145,125.814c-3.253-.461-5.381,4.933-.638,10.674s14.04,10.661,16.043,10.39,15.133-8.558,15.133-8.558a3.842,3.842,0,0,1-2.072-2.3,19.48,19.48,0,0,1-.752-3s-12.127,5.653-13.586,5.47-9.026-11.956-14.129-12.682Z" transform="translate(-390.741 -98.465)" fill="#e6ee74"/>
            <g id="Grupo_113834" data-name="Grupo 113834" transform="translate(5.479)">
              <path id="Trazado_165289" data-name="Trazado 165289" d="M415.736,89.78s.7,3.449.5,3.872a2,2,0,0,1-.5.657,2.492,2.492,0,0,1,.878,1.371c.051.7,0,4.756-.878,5.185a5.284,5.284,0,0,1-2.179.36V103s.291-.328.834,0,1.326,5.324-.145,5.438-6.543-1.693-7.225-2.621-.5-6.5-.5-6.5-1.421-4.364-.442-6.322,9.657-3.215,9.657-3.215Z" transform="translate(-401.744 -85.201)" fill="#ccccce"/>
              <path id="Trazado_165290" data-name="Trazado 165290" d="M414.785,86.237c-.183,2.653-3.013,3.745-5.539,4.086s-2.88.36-2.88.36,1.143,1.244.3,2.091.24,2.975-.5,2.8-.9-2.83-1.68-2.52.373,2.9-.3,3.594-3.038-2.754-4.238-5.009a3.934,3.934,0,0,1,0-3.985A4.348,4.348,0,0,1,403,82.782c3.676-1.105,7.244,1.768,8.912,1.768a4.1,4.1,0,0,1,2.867,1.68Z" transform="translate(-399.416 -82.529)" fill="#3c3e5e"/>
            </g>
            <path id="Trazado_165291" data-name="Trazado 165291" d="M406.3,250.591s-1.345,11.5,0,12.72,6.929,1.882,7.655-1.7-.733-5.343-.733-7.522.158-4.44.158-4.44a10.863,10.863,0,0,1-7.08.947Z" transform="translate(-396.253 -144.097)" fill="url(#linear-gradient-29)"/>
            <path id="Trazado_165292" data-name="Trazado 165292" d="M445.65,157.3s2.369,1.314,2.369,3.259,2.451,3.518,2.451,3.518,1.048-1.554,0-2.5,1.945-.177,3.051,1.516,2.627,0,.423-3.474a21.7,21.7,0,0,0-5.223-5.583,3.6,3.6,0,0,0-3.07,3.259Z" transform="translate(-410.97 -108.87)" fill="#ccccce"/>
            <path id="Trazado_165293" data-name="Trazado 165293" d="M442.513,139.225a7.359,7.359,0,0,0,4.188-3.4,8.663,8.663,0,0,0,1.017-4.4s4.623-1.055,4.794-2.305-5.678,1.288-7.2,1.63-5.141,3.929-5.141,3.929.114,3.373,2.343,4.554Z" transform="translate(-408.951 -99.567)" fill="#ccccce"/>
          </g>
          <g id="Grupo_113836" data-name="Grupo 113836" transform="translate(127.582 53.531)">
            <path id="Trazado_165294" data-name="Trazado 165294" d="M246.312,131.726s-3.632,2.855-5.533,12.929-1.573,11.842-1.061,13.415S246.463,169,246.463,169s2.173-1.907,2.413-3.689-4.314-10.832-4.314-10.832l4.32-15.36-2.571-7.4Z" transform="translate(-239.32 -113.217)" fill="#3d46c1"/>
            <path id="Trazado_165295" data-name="Trazado 165295" d="M279.35,111.69s.632,3.966.272,4.693l-.36.72a5.437,5.437,0,0,1,.474,1.945c-.063.72-.606,5.495-1.686,5.861s-3.43.5-3.966.859-1.263,3.019-1.263,3.019l-9.019-5.009,2.886-11.457s10.15-2.8,12.676-.632Z" transform="translate(-248.338 -105.535)" fill="#ccccce"/>
            <path id="Trazado_165296" data-name="Trazado 165296" d="M280.545,106.912c.076,2.217-1.029,2.8-2.608,3.291s-.9,5.905-1.623,6.133-.36-3.019-1.623-3.07-1.307,1.964-.947,3.076-.587,2.065-2.754,2.514-6.9-.36-7.08-2.438-1.623-5.5-.676-7.983,2.7-2.571,2.7-2.571-.133-3.158,4.693-3.385,9.764.088,9.91,4.421Z" transform="translate(-248.012 -102.424)" fill="url(#linear-gradient-30)"/>
            <path id="Trazado_165297" data-name="Trazado 165297" d="M248.6,276.145s-1.516,5.2-.789,5.722,5.817,2.034,7.188,0,6.228-7.617,5.387-9.183-3.025-1.933-4.592-.316-7.2,3.777-7.2,3.777Z" transform="translate(-242.377 -164.646)" fill="url(#linear-gradient-31)"/>
            <path id="Trazado_165298" data-name="Trazado 165298" d="M270.288,288.36s-1.219,4.642-.695,5.476a6.118,6.118,0,0,0,5.849,1.566c2.35-.834,5.9-2.924,8.615-3.966s4.7-2.192,4.434-3.809-2.141-2.659-4.434-2.3-13.762,3.032-13.762,3.032Z" transform="translate(-250.425 -169.781)" fill="url(#linear-gradient-32)"/>
            <path id="Trazado_165299" data-name="Trazado 165299" d="M250.148,192.06s-1.522,4.27-.714,7.5a16.91,16.91,0,0,0,2.192,5.192v14.988a37.032,37.032,0,0,0-2.425,13.952c.234,7.611-.013,13.257-.013,13.257a7.775,7.775,0,0,0,5.211.808,5.015,5.015,0,0,0,3.8-3.227s-2.88-9.341.808-17.64,5.419-33.9,5.419-33.9l-14.274-.922Z" transform="translate(-242.954 -135.447)" fill="url(#linear-gradient-33)"/>
            <path id="Trazado_165300" data-name="Trazado 165300" d="M258.071,129.54s9.524,4.409,10.327,5.47.537,3.36.537,3.36,6.051,2.451,6.051,4.484v28.018a22.8,22.8,0,0,1-16.112,4.137c-9.524-1.2-8.988-6.809-8.988-6.809s1.592-11.672,0-20.255-2.04-17.394.72-17.394,4.541,1.573,5.785.878a4.015,4.015,0,0,0,1.693-1.888Z" transform="translate(-242.742 -112.414)" fill="#3d46c1"/>
            <path id="Trazado_165301" data-name="Trazado 165301" d="M259.375,198.577s-.7,4.15,2.672,9.215,5.236,5.148,5.236,5.148v15.007s-1.51,2.577-1.6,12.43.088,14.116.088,14.116,1.421,2.305,4.971,1.775,3.815-2.04,3.815-2.04.531-16.068,3.107-24.418.8-34.289.8-34.289a25.6,25.6,0,0,1-19.093,3.063Z" transform="translate(-246.686 -136.721)" fill="url(#linear-gradient-34)"/>
            <path id="Trazado_165302" data-name="Trazado 165302" d="M287.5,148.3c-2.488.341-2.792,3.209-2.552,10.965s.474,12.152.474,12.152l3.929,14.2a2.912,2.912,0,0,0,3.455,0c1.667-1.333,2.166-1.806,2.166-1.806l-2.646-15.834s2.217-20.634-4.832-19.668Z" transform="translate(-256.106 -119.317)" fill="#3d46c1"/>
            <path id="Trazado_165303" data-name="Trazado 165303" d="M292.757,206.93a9.9,9.9,0,0,0,0,3.79,28.868,28.868,0,0,0,1.131,3.329,1.415,1.415,0,0,0,1.667-1.528c.069-1.8.486-2.147.9.973s1.737,2.7,2.634-.973-1.282-7.99-1.282-7.99a5.237,5.237,0,0,1-5.046,2.4Z" transform="translate(-258.935 -140.04)" fill="#ccccce"/>
          </g>
          <g id="Grupo_113847" data-name="Grupo 113847" transform="translate(283.514 201.649)">
            <path id="Trazado_165304" data-name="Trazado 165304" d="M487.84,379.919l37.024,21.512a8.018,8.018,0,0,0,8.047.013l57.122-32.685a3.334,3.334,0,0,0,.013-5.766l-37.214-21.626a7.523,7.523,0,0,0-7.535-.013l-57.437,32.875a3.287,3.287,0,0,0-.013,5.691Z" transform="translate(-486.207 -338.195)" fill="url(#linear-gradient-35)"/>
            <path id="Trazado_165305" data-name="Trazado 165305" d="M487.84,376.509l37.024,21.512a8.018,8.018,0,0,0,8.047.013l57.122-32.685a3.334,3.334,0,0,0,.013-5.766l-37.214-21.626a7.523,7.523,0,0,0-7.535-.013l-57.437,32.875a3.287,3.287,0,0,0-.013,5.691Z" transform="translate(-486.207 -336.939)" fill="#75b52f"/>
            <g id="Grupo_113846" data-name="Grupo 113846" transform="translate(4.987 3.544)">
              <path id="Trazado_165306" data-name="Trazado 165306" d="M532.476,397.644a6.04,6.04,0,0,1-3.038-.821L494.9,376.757a1.618,1.618,0,0,1,.006-2.8L548.487,343.3a5.569,5.569,0,0,1,5.577.006l34.713,20.173a1.656,1.656,0,0,1,0,2.867l-53.281,30.493a6.023,6.023,0,0,1-3.019.808Z" transform="translate(-494.1 -342.55)" fill="#fff"/>
              <g id="Grupo_113845" data-name="Grupo 113845" transform="translate(11.141 10.757)">
                <g id="Grupo_113838" data-name="Grupo 113838" transform="translate(28.409)">
                  <g id="Grupo_113837" data-name="Grupo 113837">
                    <path id="Trazado_165307" data-name="Trazado 165307" d="M561.413,365.8l-4.364-2.621a.5.5,0,0,1,.006-.935l4.415-2.476a1.781,1.781,0,0,1,1.617.025l4.364,2.621a.5.5,0,0,1-.006.935l-4.415,2.476A1.78,1.78,0,0,1,561.413,365.8Z" transform="translate(-556.72 -359.582)" fill="#a0a4e1"/>
                    <path id="Trazado_165308" data-name="Trazado 165308" d="M599.518,380.913l-22.554-13.554a.275.275,0,0,1,0-.518h0a.984.984,0,0,1,.891.013l22.554,13.554a.275.275,0,0,1,0,.518h0A.984.984,0,0,1,599.518,380.913Z" transform="translate(-564.111 -362.219)" fill="#d8dada"/>
                    <path id="Trazado_165309" data-name="Trazado 165309" d="M595.268,383.293l-22.554-13.554a.275.275,0,0,1,0-.518h0a.984.984,0,0,1,.891.013l22.554,13.554a.275.275,0,0,1,0,.518h0A.984.984,0,0,1,595.268,383.293Z" transform="translate(-562.545 -363.096)" fill="#d8dada"/>
                    <path id="Trazado_165310" data-name="Trazado 165310" d="M581.07,379.7l-12.607-7.573a.275.275,0,0,1,0-.518h0a.984.984,0,0,1,.891.013l12.607,7.573a.275.275,0,0,1,0,.518h0A.984.984,0,0,1,581.07,379.7Z" transform="translate(-560.979 -363.977)" fill="#d8dada"/>
                  </g>
                  <path id="Trazado_165311" data-name="Trazado 165311" d="M562.315,362.21a3.311,3.311,0,0,1,.385,1.4,1.892,1.892,0,0,1-.411,1.156,17.132,17.132,0,0,1,2.722-.392,13.358,13.358,0,0,1,2.451.145l.133-1.168a14.016,14.016,0,0,0-1.945.114,15.727,15.727,0,0,0-1.712.309,5.209,5.209,0,0,0,.1-.922c0-.493-.095-.581-.095-.581l-1.63-.063Z" transform="translate(-558.772 -360.55)" fill="#fff"/>
                </g>
                <g id="Grupo_113840" data-name="Grupo 113840" transform="translate(18.942 5.312)">
                  <g id="Grupo_113839" data-name="Grupo 113839">
                    <path id="Trazado_165312" data-name="Trazado 165312" d="M546.423,374.206l-4.364-2.621a.5.5,0,0,1,.006-.935l4.415-2.476a1.78,1.78,0,0,1,1.617.025l4.364,2.621a.5.5,0,0,1-.006.935l-4.415,2.476A1.78,1.78,0,0,1,546.423,374.206Z" transform="translate(-541.73 -367.992)" fill="#a0a4e1"/>
                    <path id="Trazado_165313" data-name="Trazado 165313" d="M584.528,389.323l-22.554-13.554a.275.275,0,0,1,0-.518h0a.984.984,0,0,1,.891.013l22.554,13.554a.275.275,0,0,1,0,.518h0A.984.984,0,0,1,584.528,389.323Z" transform="translate(-549.121 -370.629)" fill="#d8dada"/>
                    <path id="Trazado_165314" data-name="Trazado 165314" d="M580.278,391.7l-22.554-13.554a.275.275,0,0,1,0-.518h0a.984.984,0,0,1,.891.013L581.168,391.2a.275.275,0,0,1,0,.518h0A.984.984,0,0,1,580.278,391.7Z" transform="translate(-547.555 -371.506)" fill="#d8dada"/>
                    <path id="Trazado_165315" data-name="Trazado 165315" d="M566.07,388.112l-12.607-7.573a.275.275,0,0,1,0-.518h0a.984.984,0,0,1,.891.013l12.607,7.573a.275.275,0,0,1,0,.518h0A.984.984,0,0,1,566.07,388.112Z" transform="translate(-545.986 -372.387)" fill="#d8dada"/>
                  </g>
                  <path id="Trazado_165316" data-name="Trazado 165316" d="M547.325,370.62a3.311,3.311,0,0,1,.385,1.4,1.892,1.892,0,0,1-.411,1.156,17.138,17.138,0,0,1,2.722-.392,13.353,13.353,0,0,1,2.451.145l.133-1.168a14.021,14.021,0,0,0-1.945.114,15.716,15.716,0,0,0-1.712.31,5.209,5.209,0,0,0,.1-.922c0-.493-.095-.581-.095-.581l-1.63-.063Z" transform="translate(-543.782 -368.96)" fill="#fff"/>
                </g>
                <g id="Grupo_113842" data-name="Grupo 113842" transform="translate(9.474 10.623)">
                  <g id="Grupo_113841" data-name="Grupo 113841">
                    <path id="Trazado_165317" data-name="Trazado 165317" d="M531.433,382.616l-4.364-2.621a.5.5,0,0,1,.006-.935l4.415-2.476a1.78,1.78,0,0,1,1.617.025l4.364,2.621a.5.5,0,0,1-.006.935l-4.415,2.476A1.78,1.78,0,0,1,531.433,382.616Z" transform="translate(-526.74 -376.402)" fill="#a0a4e1"/>
                    <path id="Trazado_165318" data-name="Trazado 165318" d="M569.538,397.733l-22.554-13.554a.275.275,0,0,1,0-.518h0a.984.984,0,0,1,.891.013l22.554,13.554a.275.275,0,0,1,0,.518h0A.984.984,0,0,1,569.538,397.733Z" transform="translate(-534.131 -379.039)" fill="#d8dada"/>
                    <path id="Trazado_165319" data-name="Trazado 165319" d="M565.288,400.113l-22.554-13.554a.275.275,0,0,1,0-.518h0a.984.984,0,0,1,.891.013l22.554,13.554a.275.275,0,0,1,0,.518h0A.984.984,0,0,1,565.288,400.113Z" transform="translate(-532.565 -379.916)" fill="#d8dada"/>
                    <path id="Trazado_165320" data-name="Trazado 165320" d="M551.08,396.522l-12.607-7.573a.275.275,0,0,1,0-.518h0a.984.984,0,0,1,.891.013l12.607,7.573a.275.275,0,0,1,0,.518h0A.984.984,0,0,1,551.08,396.522Z" transform="translate(-530.995 -380.797)" fill="#d8dada"/>
                  </g>
                  <path id="Trazado_165321" data-name="Trazado 165321" d="M532.335,379.03a3.311,3.311,0,0,1,.385,1.4,1.892,1.892,0,0,1-.411,1.156,17.136,17.136,0,0,1,2.722-.392,13.358,13.358,0,0,1,2.451.145l.133-1.168a14.016,14.016,0,0,0-1.945.114,15.727,15.727,0,0,0-1.712.309,5.209,5.209,0,0,0,.1-.922c0-.493-.095-.581-.095-.581l-1.63-.063Z" transform="translate(-528.792 -377.37)" fill="#fff"/>
                </g>
                <g id="Grupo_113844" data-name="Grupo 113844" transform="translate(0 15.935)">
                  <g id="Grupo_113843" data-name="Grupo 113843">
                    <path id="Trazado_165322" data-name="Trazado 165322" d="M516.433,391.026l-4.364-2.621a.5.5,0,0,1,.006-.935l4.415-2.476a1.78,1.78,0,0,1,1.617.025l4.364,2.621a.5.5,0,0,1-.006.935l-4.415,2.476A1.78,1.78,0,0,1,516.433,391.026Z" transform="translate(-511.74 -384.812)" fill="#a0a4e1"/>
                    <path id="Trazado_165323" data-name="Trazado 165323" d="M554.538,406.143l-22.554-13.554a.275.275,0,0,1,0-.518h0a.984.984,0,0,1,.891.013l22.554,13.554a.275.275,0,0,1,0,.518h0A.984.984,0,0,1,554.538,406.143Z" transform="translate(-519.131 -387.449)" fill="#d8dada"/>
                    <path id="Trazado_165324" data-name="Trazado 165324" d="M550.288,408.523l-22.554-13.554a.275.275,0,0,1,0-.518h0a.984.984,0,0,1,.891.013l22.554,13.554a.275.275,0,0,1,0,.518h0A.984.984,0,0,1,550.288,408.523Z" transform="translate(-517.565 -388.326)" fill="#d8dada"/>
                    <path id="Trazado_165325" data-name="Trazado 165325" d="M536.09,404.932l-12.607-7.573a.275.275,0,0,1,0-.518h0a.984.984,0,0,1,.891.013l12.607,7.573a.275.275,0,0,1,0,.518h0A.984.984,0,0,1,536.09,404.932Z" transform="translate(-515.999 -389.207)" fill="#d8dada"/>
                  </g>
                  <path id="Trazado_165326" data-name="Trazado 165326" d="M517.335,387.43a3.311,3.311,0,0,1,.385,1.4,1.892,1.892,0,0,1-.411,1.156,17.138,17.138,0,0,1,2.722-.392,13.353,13.353,0,0,1,2.451.145l.133-1.168a14.021,14.021,0,0,0-1.945.114,15.716,15.716,0,0,0-1.712.31,5.209,5.209,0,0,0,.1-.922c0-.493-.095-.581-.095-.581l-1.63-.063Z" transform="translate(-513.792 -385.777)" fill="#fff"/>
                </g>
              </g>
              <path id="Trazado_165327" data-name="Trazado 165327" d="M597.637,367.911l-12.885-7.484c-.4-.234-.316-.625.177-.872h0a1.938,1.938,0,0,1,1.63-.032l12.885,7.484c.4.234.316.625-.177.872h0A1.938,1.938,0,0,1,597.637,367.911Z" transform="translate(-527.404 -348.743)" fill="#a0a4e1"/>
            </g>
            <path id="Trazado_165328" data-name="Trazado 165328" d="M621.938,356.092l-4.307-2.331q.17-.085.322-.171c1.87-1.08,2.078-2.659.474-3.531a7.2,7.2,0,0,0-6.291.379c-.107.063-.2.126-.3.189l-4.307-2.331a2.923,2.923,0,0,0-2.558.158l-1.933,1.118c-1.566.9-1.743,2.23-.4,2.956l11.887,6.436a6.025,6.025,0,0,0,5.268-.322l1.933-1.118c.758-.436.846-1.08.2-1.434Zm-8.261-3.284c-.745-.4-.644-1.137.221-1.636a3.347,3.347,0,0,1,2.918-.177c.745.4.644,1.137-.221,1.636A3.347,3.347,0,0,1,613.677,352.808Z" transform="translate(-528.768 -341.041)" fill="#dbe636"/>
            <path id="Trazado_165329" data-name="Trazado 165329" d="M621.558,355.122l-4.307-2.331q.17-.085.322-.171c1.87-1.08,2.078-2.659.474-3.531a7.2,7.2,0,0,0-6.291.379c-.107.063-.2.126-.3.189l-4.307-2.331a2.923,2.923,0,0,0-2.558.158l-1.933,1.118c-1.566.9-1.743,2.23-.4,2.956L614.15,358a6.025,6.025,0,0,0,5.268-.322l1.933-1.118c.758-.436.846-1.08.2-1.434Zm-8.261-3.284c-.745-.4-.644-1.137.221-1.636a3.347,3.347,0,0,1,2.918-.177c.745.4.644,1.137-.221,1.636A3.347,3.347,0,0,1,613.3,351.838Z" transform="translate(-528.628 -340.683)" fill="#e6ee74"/>
            <path id="Trazado_165330" data-name="Trazado 165330" d="M590.024,379.891,532.9,412.576a8.049,8.049,0,0,1-8.047-.013l-37.024-21.512a3.238,3.238,0,0,1-1.623-2.7,3.26,3.26,0,0,0,1.623,2.981l37.024,21.512a8.018,8.018,0,0,0,8.047.013l57.122-32.685a3.3,3.3,0,0,0,1.661-3.019,3.3,3.3,0,0,1-1.661,2.747Z" transform="translate(-486.205 -351.753)" fill="url(#linear-gradient-36)"/>
          </g>
        </g>
      </g>
    </g>
  </g>
</svg>
